<svg xmlns="http://www.w3.org/2000/svg" viewBox="0 0 61.5689 107.615"><defs><style>.cls-1{fill:#fff;}.cls-2{fill:#1f7ff0;}.cls-3,.cls-4,.cls-5{fill:none;stroke:#1f7ff0;stroke-linecap:round;stroke-linejoin:round;}.cls-3{stroke-width:0.05px;}.cls-4{stroke-width:0.1px;}.cls-5{stroke-width:0.5px;}</style></defs><g id="mainLines"><path class="cls-1" d="M32.41683,105.86058a1.49907,1.49907,0,0,1-.24756-.02051,1.71984,1.71984,0,0,1-.42676-.13428l-.02295.001a.21145.21145,0,0,1-.10351-.02588l-.56006-.31982a1.32583,1.32583,0,0,1-.12256-.09082l-.65576-.35889.02246-.2876-.125.21631-14.9253-8.61328a.2264.2264,0,0,1-.07617-.02734l-.52978-.31006-.08106-.05615a.2193.2193,0,0,1-.05957-.02442l-.56006-.33008a1.71981,1.71981,0,0,1-.75146-1.61328l-.00147-14.0039-2.78125-.249a.36869.36869,0,0,1-.11035-.03515c-.02.00048-.041.001-.0625.001a6.32831,6.32831,0,0,1-.65381-.04638c-.29443-.02246-.54687-.042-.79931-.06982l-1.59131-.12891a2.6142,2.6142,0,0,1-.40186-.0669,1.56113,1.56113,0,0,1-.37158-.11914l-.0293-.01465a3.03646,3.03646,0,0,1-.40429-.20263,2.59781,2.59781,0,0,1-.68213-.62354.23569.23569,0,0,1-.05176-.0752l-.04541-.06445-.51025-1.04394-.042-.167c-.02636-.03125-.14257-.17919-.14257-.17919l-.07325-.10889a4.62518,4.62518,0,0,1-.56347-1.1333,5.94147,5.94147,0,0,1-.23194-1.05225c-.03027-.25049-.04394-.5083-.05761-.76318l-.01367-.25049.01953-.83447c.02246-.21534.04345-.39307.07519-.54981l.03711-.63183a.23481.23481,0,0,1-.03223-.11866,3.1712,3.1712,0,0,1,.02149-.32568,7.42451,7.42451,0,0,0-.01123-.91894,5.66811,5.66811,0,0,0-.11279-.69483,4.03761,4.03761,0,0,0-.25245-.73242,3.05185,3.05185,0,0,0-.19775-.38672A.253.253,0,0,1,3.0804,68.135c-.00049-.002-.04053-.064-.05371-.08984a2.0758,2.0758,0,0,1-.20117-.58984,2.551,2.551,0,0,1-.06543-.58155,3.20265,3.20265,0,0,1,.03662-.42773l.01562-.12158c.29248-1.47852.58252-2.938.85254-4.38672.29981-1.5503.56934-3.08838.83936-4.627.26953-1.53906.51953-3.07812.76953-4.61718.23926-1.5376.46875-3.06641.689-4.605.228-1.58643.44336-3.08594.6294-4.58594.11035-.84668.2124-1.69238.30566-2.53027q-.79833-.20216-1.5957-.42823a.7072.7072,0,0,1-.44531-.36816l-.73828-1.4165a.66439.66439,0,0,1-.07325-.45508l.45655-4.04883a.755.755,0,0,1,.67676-.66113c.84326-.07959,1.69824-.14893,2.543-.18946.10645-1.13769.20557-2.27539.3042-3.41357l.01563-.1792c.127-1.47607.23486-2.95215.34277-4.42822.10645-1.606.19678-3.11475.27686-4.61377.07959-1.49854.14941-2.99658.19922-4.48487.03808-1.06738.06689-2.12451.0957-3.18212l.00439-.15674a.26009.26009,0,0,1,.01416-.07617,4.07179,4.07179,0,0,1,.04981-.481,2.66677,2.66677,0,0,1,.19531-.63233,2.275,2.275,0,0,1,.3208-.53613,1.14085,1.14085,0,0,1,.106-.12549.21232.21232,0,0,1,.03906-.07861c.00537-.00684.07568-.08252.082-.08887a4.439,4.439,0,0,0,.38477-.49316,3.261,3.261,0,0,0,.189-.30127,3.09128,3.09128,0,0,0,.18311-.4336c.0664-.208.12549-.43359.18359-.65869.04785-.18408.08594-.36279.12451-.54345l.05371-.24854a.25145.25145,0,0,1,.105-.15332c.0664-.41943.12207-.77051.19384-1.12207.08106-.41553.17334-.84277.29492-1.26025a7.68584,7.68584,0,0,1,.541-1.31055.69059.69059,0,0,1,.05811-.082,2.807,2.807,0,0,1,.39062-.58838,2.4587,2.4587,0,0,1,.32324-.34473.32917.32917,0,0,1,.10987-.103c-.01123-.00538.03466-.05176.081-.09815a.25076.25076,0,0,1,.13672-.06982,2.624,2.624,0,0,1,.37207-.25391,2.48531,2.48531,0,0,1,.49365-.208,2.96449,2.96449,0,0,1,.54883-.10107l.15723-.0044c.12207,0,.24756.00684.373.01465l3.00733.30567a.23148.23148,0,0,1,.103-.02588c.00585,0,4.59765.42041,4.59765.42041.27246.02832.52.04736.75928.06592.3125.03222.56055.05127.80029.06982l1.41846.12451a2.27584,2.27584,0,0,1,.25049.021l.29248.04053a.84325.84325,0,0,1,.14795.03369.20553.20553,0,0,1,.104.03271,3.07691,3.07691,0,0,1,.43652.1875.24454.24454,0,0,1,.03858.02442,1.35879,1.35879,0,0,1,.18262.082,1.96636,1.96636,0,0,1,.67822.62988.66453.66453,0,0,1,.11328.1499,3.06881,3.06881,0,0,1,.291.51074,3.41277,3.41277,0,0,1,.21435.56006l.05957.19825.0625.06054a.26221.26221,0,0,1,.09326.104.93592.93592,0,0,1,.08936.12646,3.96464,3.96464,0,0,1,.5039,1.064,5.21852,5.21852,0,0,1,.229,1.04394,8.65047,8.65047,0,0,1,.07178,1.022c0,.294-.00049.58106-.021.83741a3.70373,3.70373,0,0,1-.064.53906l-.0371.6289a.218.218,0,0,1,.03125.12549c-.01026.10987-.01905.19825-.01905.28662a6.17314,6.17314,0,0,0,.00879.94678,4.27714,4.27714,0,0,0,.11377.70264,3.95524,3.95524,0,0,0,.24609.73926.24843.24843,0,0,1,.021.08837l.21192.40772c.00732.01416.0415.0874.04687.1001a.15237.15237,0,0,1,.04688.0874.30983.30983,0,0,1,.0205.07275,2.42424,2.42424,0,0,1,.11524.3501,2.79521,2.79521,0,0,1,.04443,1.15723.22385.22385,0,0,1-.00049.08642c-.29,1.44922-.57959,2.90869-.85937,4.36817-.28955,1.53808-.56983,3.0874-.83985,4.626-.25927,1.5376-.51855,3.07666-.75879,4.61573-.24023,1.52881-.48,3.06787-.6997,4.59668-.21973,1.53808-.4292,3.06689-.61914,4.59521-.2002,1.53027-.38965,3.0586-.55957,4.58692q-.2549,2.27856-.4795,4.55664c-.1499,1.519-.29,3.02832-.41992,4.54736-.11963,1.50684-.23974,3.01611-.33984,4.5249s-.19971,3.0166-.27,4.50537l-.11816,2.52344,17.01367-9.812a.5786.5786,0,0,1,.09326-.063.22653.22653,0,0,1,.0498-.03857l.66016-.37012a1.72043,1.72043,0,0,1,.74756-.1709,1.76254,1.76254,0,0,1,1.01855.32471l13.41065,7.748A4.87341,4.87341,0,0,1,59.66,66.112l.00049,10.34131a4.99931,4.99931,0,0,1-1.24317,3.03614L38.82942,102.10716a4.14929,4.14929,0,0,1-1.00878.85986l-4.45606,2.56348A1.49651,1.49651,0,0,1,32.41683,105.86058Z"/><path class="cls-2" d="M14.69314,2.79942c.11667,0,.2369.00708.3571.01416l3.05.31v.01l.07-.02v-.02l4.58.42h.02c.27.03.54.05.8.06995.27.03.54.05.8.07.46.04.9.08,1.35.12a2.10367,2.10367,0,0,1,.25.02l.29.04.07.01.04.02h.01a.09007.09007,0,0,1,.05.01,3.43244,3.43244,0,0,1,.44.19v.01a1.89229,1.89229,0,0,1,.21.09,1.78238,1.78238,0,0,1,.6.56.64234.64234,0,0,1,.1.13,2.95906,2.95906,0,0,1,.28.49,3.28529,3.28529,0,0,1,.2.52c.02.07.04.13.06.2l.16.2h.01v.02a.64385.64385,0,0,1,.1.13,3.75047,3.75047,0,0,1,.48,1.01,4.96886,4.96886,0,0,1,.22,1,8.40405,8.40405,0,0,1,.07,1c0,.28,0,.56-.02.81a3.57549,3.57549,0,0,1-.06.51v.01l-.01.09-.03.55-.01.1v.01l.01.02h.03c-.01.11-.02.21-.02.31a6.28216,6.28216,0,0,0,.01.97,4.56589,4.56589,0,0,0,.12.74,4.20289,4.20289,0,0,0,.26.78l-.02.00995.26.5c0,.01.01.02.01.03l.01.01c.01.02.02.05.03.07.01.00995.01.02.02.03a.031.031,0,0,0,.01.02.05994.05994,0,0,1,.01.04.03682.03682,0,0,1,.01.03,2.1306,2.1306,0,0,1,.11.33,2.54956,2.54956,0,0,1,.03,1.1v.03h.01c-.29,1.45-.58,2.91-.86,4.37-.29,1.54-.57,3.09-.84,4.63-.26,1.54-.52,3.08-.76,4.62-.24,1.53-.48,3.07-.7,4.6-.22,1.54-.43,3.07-.62,4.6-.2,1.53-.39,3.06-.56,4.59q-.255,2.27994-.48,4.56c-.15,1.52-.29,3.03-.42,4.55-.12,1.51-.24,3.02-.34,4.53-.1,1.50995-.2,3.02-.27,4.50995-.05,1-.09,1.99-.14,2.98l17.41-10.04a.59632.59632,0,0,1,.15-.09l-.01-.01.66-.37a1.469,1.469,0,0,1,.6255-.1394,1.52,1.52,0,0,1,.8745.27942l13.43,7.75995a4.61046,4.61046,0,0,1,2.13,3.67v10.33a4.71634,4.71634,0,0,1-1.18,2.87l-19.59,22.62a3.88793,3.88793,0,0,1-.95.81l-4.45,2.56a1.29566,1.29566,0,0,1-.82367.297,1.25567,1.25567,0,0,1-.20633-.017,1.42425,1.42425,0,0,1-.45-.16l-.02.03-.56-.32a.42334.42334,0,0,1-.07-.05c-.02-.01-.05-.03-.07-.04l-.64-.36c-.03-.02-.07-.05-.1-.07l-14.78-8.53-.21-.12-.01.01-.53-.31a.30352.30352,0,0,0-.07-.05c-.02-.01-.04-.03-.06-.04l-.01.01-.56-.33a1.469,1.469,0,0,1-.63-1.37v-14.26l-.97-.09-1.68-.15-.36-.03-.02-.01c-.27-.02-.53-.04-.8-.07-.26-.02-.53-.04-.8-.07-.53-.04-1.06-.09-1.6-.13a2.25534,2.25534,0,0,1-.36-.06c-.01,0-.03-.01-.04-.01a.09007.09007,0,0,0-.05-.01,1.04788,1.04788,0,0,1-.23-.08.07594.07594,0,0,1-.04-.02,2.69977,2.69977,0,0,1-.38-.19,2.33,2.33,0,0,1-.61-.56l-.02-.02v-.01l-.07-.1-.49-1.01-.04-.18c-.06-.06-.12-.15-.18-.22l-.01-.02c-.03-.04-.06-.09-.09-.13a4.28525,4.28525,0,0,1-.49-1.01,5.76482,5.76482,0,0,1-.22-1c-.04-.33-.05-.67-.07-1,.01-.28.01-.56.02-.81.02-.19.04-.36.07-.51v-.01l.05-.8c-.01,0-.02.01-.03.01h-.01c0-.1.01-.2.02-.3a7.688,7.688,0,0,0-.01-.96,6.00964,6.00964,0,0,0-.12-.74,4.23265,4.23265,0,0,0-.27-.78,3.16861,3.16861,0,0,0-.21-.41h.02l-.04-.09v-.01h.01c-.02-.04-.05-.07-.07-.11a1.84323,1.84323,0,0,1-.18-.53,2.32751,2.32751,0,0,1-.06-.53,4.36318,4.36318,0,0,1,.05-.52c.29-1.46.58-2.92.85-4.37.3-1.55.57-3.09.84-4.63s.52-3.08.77-4.62c.24-1.54.47-3.07.69-4.61.22-1.53.44-3.06.63-4.59.12-.92.23-1.84.33-2.75q-.9-.22494-1.8-.48a.459.459,0,0,1-.29-.24l-.74-1.42a.42158.42158,0,0,1-.05-.29l.46-4.07a.50005.50005,0,0,1,.45-.44c.85-.08,1.71-.15,2.56-.19.06,0,.13-.01.19-.01.12-1.27.23-2.54.34-3.81.13-1.50995.24-3.02.35-4.53.1-1.51.19-3.02.27-4.52s.15-3,.2-4.49c.04-1.12.07-2.23.1-3.34h.01a4.35989,4.35989,0,0,1,.05-.52,2.43286,2.43286,0,0,1,.18-.58,2.01536,2.01536,0,0,1,.28-.47,1.53651,1.53651,0,0,1,.17-.19l-.02-.02c.04-.05.09-.09.13-.14a4.6665,4.6665,0,0,0,.35-.46,3.45253,3.45253,0,0,0,.2-.32,3.32217,3.32217,0,0,0,.2-.47c.07-.22.13-.45.19-.68.07-.27.12-.53.18-.8h.06v-.04c.01-.02.03-.04.05-.07l-.01-.01c.06-.38.12-.77.2-1.16.08-.41.17-.82995.29-1.24a7.27,7.27,0,0,1,.52-1.26c.01-.00995.01-.02.02-.03a3.298,3.298,0,0,1,.4-.6,2.30734,2.30734,0,0,1,.3-.31995.30394.30394,0,0,1,.08-.08,1.53664,1.53664,0,0,1,.12-.13h.05a2.86157,2.86157,0,0,1,.4-.28,2.25728,2.25728,0,0,1,.45-.19,2.6504,2.6504,0,0,1,.49-.09c.04687-.00293.09456-.00415.1429-.00415m0-.5c-.05887,0-.117.00153-.17409.00513a3.10161,3.10161,0,0,0-.58.10388,2.79955,2.79955,0,0,0-.57674.24091,2.63209,2.63209,0,0,0-.37552.25476.48814.48814,0,0,0-.17993.10577c-.03878.03876-.07722.07788-.11581.12207a.82366.82366,0,0,0-.10067.1023,2.71574,2.71574,0,0,0-.3301.35931,3.65093,3.65093,0,0,0-.4306.64465.502.502,0,0,0-.02751.04438,7.83293,7.83293,0,0,0-.55733,1.34619c-.13714.46783-.231.91821-.3053,1.299-.07117.34686-.12745.69794-.18177,1.04224a.49872.49872,0,0,0-.11559.22509l-.05393.24927c-.03787.17755-.07519.35333-.122.53369-.058.22217-.11531.44287-.18245.65387a2.77555,2.77555,0,0,1-.16476.38642,2.936,2.936,0,0,1-.16846.26861,4.24719,4.24719,0,0,1-.31815.41913L9.59164,10.75a1.36584,1.36584,0,0,0-.10177.11115.49849.49849,0,0,0-.06537.10657,1.45748,1.45748,0,0,0-.10109.12518,2.378,2.378,0,0,0-.32556.54767,2.97154,2.97154,0,0,0-.22207.71887,4.10548,4.10548,0,0,0-.04923.46912.48309.48309,0,0,0-.01611.11145c-.03,1.10858-.05991,2.21716-.09987,3.33569-.045,1.34064-.11027,2.80609-.1996,4.4812-.07989,1.49787-.16976,3.00574-.26963,4.51361-.1096,1.50452-.21943,3.01233-.34924,4.52008-.09748,1.12555-.195,2.25092-.2994,3.37622-.69324.03687-1.43968.0943-2.33927.1789a1.00482,1.00482,0,0,0-.89932.87579l-.4607,4.07587a.88125.88125,0,0,0,.1098.589l.73364,1.40826a.95778.95778,0,0,0,.612.494c.45223.12829.91317.25305,1.37621.37237-.08649.76539-.18,1.53663-.28064,2.30787-.18974,1.52789-.413,3.08068-.62893,4.58233-.21994,1.53955-.44963,3.06751-.68931,4.60541-.24944,1.5365-.499,3.07361-.76844,4.6106-.26587,1.51635-.53965,3.07782-.8384,4.62133-.27032,1.45154-.55993,2.90955-.84953,4.36762l-.021.15558a3.49808,3.49808,0,0,0-.03859.46185,2.81755,2.81755,0,0,0,.0733.64453,2.28336,2.28336,0,0,0,.23089.66058.4318.4318,0,0,0,.02511.0434.46481.46481,0,0,0,.06487.18347,2.66723,2.66723,0,0,1,.17627.345,3.853,3.853,0,0,1,.24556.7085,5.601,5.601,0,0,1,.10756.67413,7.06389,7.06389,0,0,1,.00742.8692,3.24632,3.24632,0,0,0-.021.33118.49944.49944,0,0,0,.02806.16553l-.036.57617c-.02863.15356-.04925.3255-.0693.51593-.00762.16418-.01023.30408-.01286.44788-.00239.13-.0048.2633-.00957.39666l.01445.29956c.01362.25953.02776.52192.05885.77845a6.18975,6.18975,0,0,0,.23787,1.08487A4.79678,4.79678,0,0,0,4.18631,76.744l.043.062c.01322.01984.02655.03962.03984.05844a.573.573,0,0,0,.05149.0745l.05531.06985.04342.05554.01282.05774a.50118.50118,0,0,0,.03825.10978l.49,1.01a.501.501,0,0,0,.04021.06845l.03755.05365a.48367.48367,0,0,0,.0884.12307,2.78139,2.78139,0,0,0,.71869.65058,3.35,3.35,0,0,0,.44194.22345l.01974.00924-.00027.00052a1.53261,1.53261,0,0,0,.33242.11786.48805.48805,0,0,0,.04813.00955l.01615.00382.02574.00619-.00011.00046a2.769,2.769,0,0,0,.43969.07318c.28368.02106.56005.04441.83512.06766.257.02173.51294.04336.76883.06266.23925.02691.49607.04668.74469.06576l.05463.00418c.2399.02691.48548.04654.73961.06552a.45457.45457,0,0,0,.07717.01422l.36.03,1.67706.14975.51447.04773V93.86742a1.9632,1.9632,0,0,0,.84635,1.80792l.58979.349a.51187.51187,0,0,1,.14142.08078l.53.31a.49812.49812,0,0,0,.112.04834l.1123.06421,14.77819,8.529.07271.053.67207.3797.02965.01725c.02626.02.04912.03448.06575.045l.60166.346a.49809.49809,0,0,0,.21125.0646,2.011,2.011,0,0,0,.41458.12272,1.77719,1.77719,0,0,0,.29857.0256,1.79608,1.79608,0,0,0,1.10673-.38306l4.41629-2.54059a4.4108,4.4108,0,0,0,1.0828-.921L58.60821,79.65089a5.24088,5.24088,0,0,0,1.30125-3.16906l.00079-10.35825A5.12721,5.12721,0,0,0,57.54911,62.032L44.10038,54.26066a1.98774,1.98774,0,0,0-1.96255-.15972l-.69208.38647a.49853.49853,0,0,0-.08218.05762q-.04653.0282-.09175.06189L24.68359,64.17308q.01406-.3047.02781-.60986.03286-.72492.06821-1.45472c.06983-1.4862.17131-3.01849.26946-4.50036.09988-1.50836.21962-3.0152.33935-4.522.12983-1.51783.26963-3.02564.41941-4.54352q.22467-2.27673.47932-4.55347c.152-1.36859.33485-2.86688.55888-4.58081.1686-1.35742.36522-2.81622.6192-4.59412.21964-1.52746.45931-3.0653.699-4.59326.23978-1.53839.49942-3.07623.75909-4.61419.26911-1.53486.54873-3.08277.83833-4.62073.27945-1.457.56919-2.91571.85891-4.36444a.5.5,0,0,0,.00834-.13532,3.03962,3.03962,0,0,0-.05353-1.21405,2.87853,2.87853,0,0,0-.11771-.36462.534.534,0,0,0-.06376-.16474q-.0103-.01986-.02241-.03875c-.00736-.01874-.016-.03821-.02417-.05457l-.01025-.01935-.01318-.02734-.19343-.372a.45845.45845,0,0,0-.03253-.10864,3.72588,3.72588,0,0,1-.22956-.68714,4.11506,4.11506,0,0,1-.10966-.67138,5.78966,5.78966,0,0,1-.00938-.899c.001-.108.00873-.18469.01635-.26794a.5464.5464,0,0,0-.02445-.21534l.02832-.51068.00767-.062.00036-.00342a4.17058,4.17058,0,0,0,.062-.54547c.02069-.25635.02069-.55115.02069-.8363a8.864,8.864,0,0,0-.07564-1.07489,5.38683,5.38683,0,0,0-.24-1.08325,4.2274,4.2274,0,0,0-.54039-1.13233A.97534.97534,0,0,0,28.9,5.99028a.54145.54145,0,0,0-.03973-.05212l-.089-.11121-.00307-.01019-.02715-.09046a3.74783,3.74783,0,0,0-.22838-.59558,3.40382,3.40382,0,0,0-.3292-.57281.87339.87339,0,0,0-.1197-.1568,2.18824,2.18824,0,0,0-.75992-.68476,1.2271,1.2271,0,0,0-.16525-.07446.47653.47653,0,0,0-.0447-.02551,4.02739,4.02739,0,0,0-.48248-.20935.56736.56736,0,0,0-.12606-.03571.4886.4886,0,0,0-.0843-.0227l-.07-.01-.29254-.04035a2.65962,2.65962,0,0,0-.31826-.02472l-.41769-.0393-.889-.0788-.05686-.00439c-.23842-.01825-.48484-.03705-.73123-.06446l-.069-.00555c-.23839-.01825-.48473-.037-.73107-.06439a.50313.50313,0,0,0-.05516-.00306l-4.55432-.418q-.02289-.00211-.04568-.00208a.49941.49941,0,0,0-.14084.02026l-2.92862-.29766c-.15122-.00934-.28136-.01673-.40765-.01673Z"/><path class="cls-3" d="M20.82025,31.51357c.22-1.54.45-3.08.7-4.61.39-2.31.84-4.61,1.29-6.9"/><path class="cls-3" d="M24.82025,13.23357c.1,0,.2.01.3.02.27.02.53.06.79.1s.5.09.75.14"/><line class="cls-3" x1="29.24025" y1="14.82357" x2="29.20025" y2="14.73357"/><path class="cls-3" d="M28.54025,17.95357c-.25,1.06-.49,2.13-.72,3.2-.45,2.12-.85,4.26-1.24,6.41"/><path class="cls-3" d="M24.20025,45.07357c-.08.81-.17,1.61-.24,2.42-.21,2.27-.35,4.55-.49,6.84"/><path class="cls-3" d="M19.76025,67.44357a.24852.24852,0,0,1-.08-.01c-.25-.04-.52-.08-.78-.12"/><path class="cls-3" d="M18.13025,64.13357c.01-.9.02-1.8.04-2.7.04-1.93.13-3.84.22-5.76"/><line class="cls-3" x1="29.50025" y1="15.33357" x2="29.27025" y2="14.88357"/><path class="cls-3" d="M10.37025,46.56357c-.12.85-.23,1.7-.36,2.55-.26,1.9-.56,3.79-.88,5.69q-.465,2.85-.98,5.7"/><path class="cls-3" d="M3.17025,66.29357a1.13831,1.13831,0,0,1,.23-.05,2.80305,2.80305,0,0,1,.36-.04c.14-.01.31-.02.49-.03s.38-.01.59-.01c.22-.01.46,0,.69,0"/><path class="cls-3" d="M12.39025,12.11357c-.21-.02-.43-.03-.63-.04-.24,0-.47,0-.69.02-.21.01-.41.03-.6.05-.18.03-.35.07-.5.11a3.343,3.343,0,0,0-.38.15"/><path class="cls-3" d="M13.17025,15.16357l-.09,2.55c-.08,1.84-.19,3.7-.32,5.56s-.27,3.73-.42,5.6"/><line class="cls-3" x1="17.15025" y1="68.90357" x2="17.47025" y2="68.20357"/><line class="cls-3" x1="10.10025" y1="73.39357" x2="12.97025" y2="73.65357"/><line class="cls-3" x1="8.47025" y1="73.63357" x2="9.07025" y2="73.41357"/><path class="cls-3" d="M7.54025,73.58357a.23364.23364,0,0,0,.07.07.55469.55469,0,0,0,.08.06c.03.01.07.03.1.04"/><path class="cls-3" d="M7.80025,71.62357a.92878.92878,0,0,1-.04.13,4.19177,4.19177,0,0,1-.2.49c-.04.1-.07.2-.1.3a3.02845,3.02845,0,0,0-.06.32"/><path class="cls-3" d="M7.28025,66.79357q.15.36.27.72a11.1629,11.1629,0,0,1,.29,1.53"/><line class="cls-3" x1="19.20025" y1="67.78357" x2="18.81025" y2="67.57357"/><line class="cls-3" x1="10.08025" y1="77.84357" x2="12.96025" y2="78.10357"/><path class="cls-3" d="M9.56025,77.55357c-.01-.05-.02-.1-.03-.16-.03-.26-.04-.66-.05-1.07"/><path class="cls-3" d="M3.41025,67.89357a.70358.70358,0,0,1,.19-.21c.01,0,.01-.01.02-.01a3.39664,3.39664,0,0,1,.31-.2c.14-.08.29-.16.46-.25.17-.08.35-.17.55-.25.21-.09.44-.18.66-.27"/><path class="cls-3" d="M4.15025,71.28357a2.31988,2.31988,0,0,0,.24-.02c.13-.01.31-.01.5-.01.19-.01.4-.01.64,0,.23,0,.49,0,.75.01"/><line class="cls-3" x1="6.81025" y1="77.56357" x2="8.01025" y2="77.66357"/><path class="cls-3" d="M6.47025,77.26357c.01-.03.02-.06.03-.1.03-.11.09-.26.15-.42.07-.16.15-.33.24-.52.09-.18.19-.39.29-.59"/><path class="cls-3" d="M4.81025,76.36357v-.01c.05-.08.14-.21.24-.34s.22-.27.35-.42c.13-.16.28-.32.45-.5.16-.17.34-.35.51-.53"/><line class="cls-3" x1="4.86025" y1="76.74357" x2="5.30025" y2="77.15357"/><path class="cls-3" d="M9.60025,77.80357a.031.031,0,0,1,.01.02l.01.01"/><path class="cls-3" d="M6.41025,77.53357c0,.01,0,.02.01.02"/><path class="cls-3" d="M15.05025,8.30357c-.04.2-.08.41-.13.61a7.1696,7.1696,0,0,1-.47,1.32c-.15.34-.33.67-.51,1.01"/><path class="cls-3" d="M15.15025,5.77357c-.02.1-.05.2-.07.3-.01.11-.01.21-.01.31.01.1.02.19.03.29"/><path class="cls-3" d="M16.03025,5.40357c-.04-.02-.09-.04-.13-.06a.61664.61664,0,0,0-.23-.02c-.04.01-.07.01-.11.02"/><line class="cls-3" x1="17.22025" y1="5.96357" x2="16.85025" y2="5.86357"/><line class="cls-3" x1="21.38025" y1="6.37357" x2="17.95025" y2="6.06357"/><line class="cls-3" x1="23.13025" y1="6.16357" x2="22.51025" y2="6.37357"/><path class="cls-3" d="M24.05025,6.21357c-.02-.02-.04-.05-.06-.06l-.09-.06a.29346.29346,0,0,0-.1-.03,1.60071,1.60071,0,0,0-.23-.03"/><path class="cls-3" d="M23.74025,8.03357l.03-.09a4.95836,4.95836,0,0,1,.22-.47,2.32892,2.32892,0,0,0,.11-.28c.03-.1.05-.2.07-.3"/><path class="cls-3" d="M24.08025,12.55357c-.07-.2-.15-.41-.21-.61a8.80752,8.80752,0,0,1-.26-1.45"/><path class="cls-3" d="M24.17025,8.38357a2.82522,2.82522,0,0,1,.29.02,7.54689,7.54689,0,0,1,.85.13c.29.05.56.12.84.18"/><path class="cls-3" d="M28.48025,10.52357c-.01.18-.03.36-.03.53a5.87558,5.87558,0,0,0,.1.94"/><path class="cls-3" d="M24.95025,13.03357a.57323.57323,0,0,1,.14-.04c.26-.07.52-.11.76-.16.25-.04.5-.08.73-.11.23-.02.45-.04.66-.05"/><path class="cls-3" d="M29.24025,14.50357a2.11542,2.11542,0,0,0-.09-1"/><path class="cls-3" d="M12.59025,11.86357c-.22-.1-.44-.19-.65-.28a5.23619,5.23619,0,0,0-.58-.22,4.47127,4.47127,0,0,0-.52-.17c-.15-.04-.28-.06-.41-.09"/><path class="cls-3" d="M14.41025,7.50357c-.27-.02-.54-.03-.79-.03-.27,0-.52.02-.76.04a5.15346,5.15346,0,0,0-.65.11,5.07445,5.07445,0,0,0-.51.17"/><path class="cls-3" d="M27.44025,4.65357c-.01-.01-.03-.01-.04-.02a1.14563,1.14563,0,0,0-.4.03,2.78992,2.78992,0,0,0-.5.15c-.18.07-.37.16-.57.25"/><line class="cls-3" x1="28.57025" y1="9.49357" x2="28.52025" y2="9.99357"/><path class="cls-3" d="M25.75025,3.78357h-.06a.711.711,0,0,0-.31.13,1.85489,1.85489,0,0,0-.37.25c-.13.11-.27.24-.41.37"/><path class="cls-3" d="M22.06025,5.74357c.04-.24.08-.47.11-.68a9.07126,9.07126,0,0,1,.25-1"/><path class="cls-3" d="M17.48025,5.40357c.04-.26.08-.52.12-.75.08-.41.16-.71.24-1"/><path class="cls-3" d="M13.21025,3.36357c.04-.02.11.02.19.08a1.568,1.568,0,0,1,.28.21c.1.09.22.21.35.34s.27.29.4.44"/><path class="cls-3" d="M15.05025,2.82357a.568.568,0,0,1,.09.17c.04.08.09.18.14.29.05.12.11.26.18.43.07.16.14.34.21.52"/><path class="cls-3" d="M29.30025,14.19357a2.03187,2.03187,0,0,0-.15-.69.49508.49508,0,0,0-.04-.13"/><path class="cls-3" d="M28.69025,10.82357c0-.02-.01-.03-.01-.05a1.54628,1.54628,0,0,1-.04-.15c-.01-.07-.02-.15-.03-.23"/><polyline class="cls-3" points="28.67 10.664 28.68 10.674 28.69 10.694 28.69 10.704 28.71 10.784"/><path class="cls-3" d="M28.80025,23.22357c-.38,2.16-.76,4.33-1.11,6.5-.35,2.22-.68,4.43-.99,6.65q-.465,3.36-.85,6.71-.375,3.345-.7,6.69"/><line class="cls-3" x1="30.09025" y1="16.46357" x2="30.12025" y2="16.49357"/><line class="cls-3" x1="30.12025" y1="16.51357" x2="30.12025" y2="16.49357"/><line class="cls-3" x1="29.83025" y1="15.95357" x2="30.06025" y2="16.40357"/><polyline class="cls-3" points="29.79 15.884 29.78 15.874 29.74 15.854"/><line class="cls-3" x1="5.81025" y1="77.69357" x2="5.66025" y2="77.38357"/><line class="cls-3" x1="13.39025" y1="79.02357" x2="13.04025" y2="78.99357"/><line class="cls-3" x1="11.70025" y1="78.87357" x2="10.59025" y2="78.77357"/><path class="cls-3" d="M10.00025,78.72357c-.13-.01-.26-.02-.39-.04-.27-.02-.54-.04-.8-.06"/><path class="cls-3" d="M7.02025,78.45357c-.03,0-.07-.01-.1-.01a2.274,2.274,0,0,1-.6-.26"/><polyline class="cls-3" points="10.79 79.394 12.47 79.544 13.06 79.594"/><path class="cls-3" d="M10.40025,79.34357c0-.01-.01-.03-.01-.04a.12683.12683,0,0,0-.01-.06v-.08"/><path class="cls-3" d="M7.20025,79.06357c0-.01-.01-.03-.01-.04v-.06c0-.03-.01-.05-.01-.08"/><path class="cls-3" d="M5.48025,78.13357v-.01c0-.01,0-.01.01-.02a.07581.07581,0,0,1,.02-.04.2092.2092,0,0,1,.04-.06.26513.26513,0,0,1,.05-.06"/><line class="cls-3" x1="29.51025" y1="14.22357" x2="29.52025" y2="14.22357"/><path class="cls-3" d="M29.39025,13.81357a4.16938,4.16938,0,0,1-.24-.58,4.62136,4.62136,0,0,1-.15-.74"/><polyline class="cls-3" points="28.74 11.304 28.8 11.314 28.87 11.324"/><path class="cls-3" d="M30.14025,15.81357a3.00639,3.00639,0,0,0-.05-.42,2.12892,2.12892,0,0,0-.11-.33.03674.03674,0,0,0-.01-.03.06012.06012,0,0,0-.01-.04"/><path class="cls-3" d="M29.01025,11.40357a.09137.09137,0,0,0,.05.03c.04-.02.07-.11.11-.21"/><line class="cls-3" x1="29.27025" y1="10.84357" x2="29.24025" y2="11.39357"/><line class="cls-3" x1="29.23025" y1="11.85357" x2="29.22025" y2="12.53357"/><polyline class="cls-3" points="28.94 11.174 28.95 11.204 28.98 11.294"/><line class="cls-3" x1="28.76025" y1="10.41357" x2="28.70025" y2="10.66357"/><line class="cls-3" x1="28.82025" y1="10.37357" x2="28.96025" y2="10.40357"/><line class="cls-3" x1="28.78025" y1="9.32357" x2="28.61025" y2="9.30357"/><line class="cls-3" x1="28.81025" y1="9.48357" x2="28.81025" y2="9.95357"/><polyline class="cls-3" points="29.24 11.524 29.23 11.504 29.23 11.494"/><path class="cls-3" d="M29.20025,9.34357c-.1-.01-.21-.02-.31-.02"/><line class="cls-3" x1="28.59025" y1="7.65357" x2="28.74025" y2="8.37357"/><path class="cls-3" d="M11.63025,40.36357a50.94926,50.94926,0,0,0,9.56.4"/><path class="cls-3" d="M4.66025,38.58357a.62615.62615,0,0,0-.03.27"/><path class="cls-3" d="M7.02025,38.90357a49.2754,49.2754,0,0,0,9.36,1.29"/><path class="cls-3" d="M23.55025,40.37357a.64562.64562,0,0,0,.04.19"/><line class="cls-3" x1="5.13025" y1="34.79357" x2="4.79025" y2="37.74357"/><path class="cls-3" d="M21.68025,35.32357a50.09152,50.09152,0,0,0-9.36-1.29"/><line class="cls-3" x1="23.57025" y1="39.43357" x2="23.91025" y2="36.48357"/><path class="cls-3" d="M23.79025,40.04357a2.0688,2.0688,0,0,0-.22-.04"/><path class="cls-3" d="M23.76025,40.54357a.53079.53079,0,0,0,.27-.3"/><path class="cls-3" d="M24.25025,35.96357c-.07-.01-.14-.02-.22-.03"/><line class="cls-3" x1="24.45025" y1="36.63357" x2="24.11025" y2="39.58357"/><line class="cls-3" x1="4.71025" y1="39.02357" x2="5.30025" y2="40.16357"/><line class="cls-3" x1="24.26025" y1="41.87357" x2="23.67025" y2="40.73357"/><line class="cls-3" x1="24.12025" y1="40.29357" x2="24.71025" y2="41.42357"/><line class="cls-3" x1="25.18025" y1="37.35357" x2="24.59025" y2="36.21357"/><path class="cls-3" d="M24.12025,35.58357a1.1507,1.1507,0,0,0-.12.25"/><polyline class="cls-3" points="24.48 35.834 24.51 35.904 24.52 35.984"/><path class="cls-3" d="M5.19025,33.87357a1.21875,1.21875,0,0,0,0,.27"/><path class="cls-3" d="M4.54025,38.30357a.49862.49862,0,0,0-.24.03"/><polyline class="cls-3" points="4.59 38.864 4.55 38.854 4.48 38.804"/><path class="cls-3" d="M5.01025,34.22357a.40911.40911,0,0,0-.24.04"/><line class="cls-3" x1="24.30025" y1="92.08357" x2="24.30025" y2="91.90357"/><line class="cls-3" x1="23.72025" y1="91.55357" x2="20.84025" y2="89.89357"/><line class="cls-3" x1="20.26025" y1="89.58357" x2="20.26025" y2="89.76357"/><line class="cls-3" x1="16.47025" y1="95.63357" x2="28.10025" y2="102.34357"/><line class="cls-3" x1="30.53025" y1="81.97357" x2="30.43025" y2="82.03357"/><line class="cls-3" x1="29.12025" y1="79.52357" x2="29.02025" y2="79.58357"/><line class="cls-3" x1="15.69025" y1="71.76357" x2="15.58025" y2="71.83357"/><line class="cls-3" x1="17.49025" y1="74.34357" x2="17.36025" y2="74.42357"/><line class="cls-3" x1="59.31025" y1="66.18357" x2="58.79025" y2="66.48357"/><line class="cls-3" x1="30.64025" y1="103.81357" x2="31.04025" y2="104.04357"/><line class="cls-3" x1="13.93025" y1="94.17357" x2="13.52025" y2="93.93357"/><line class="cls-3" x1="14.03025" y1="72.56357" x2="14.14025" y2="72.50357"/><line class="cls-3" x1="55.80025" y1="80.95357" x2="55.93025" y2="81.02357"/><line class="cls-4" x1="30.40025" y1="104.69357" x2="31.04025" y2="105.05357"/><polyline class="cls-4" points="14.77 95.674 15.3 95.984 15.41 96.044"/><line class="cls-4" x1="31.18025" y1="105.14357" x2="31.74025" y2="105.46357"/><line class="cls-4" x1="34.49025" y1="100.70357" x2="34.36025" y2="100.62357"/><line class="cls-4" x1="14.07025" y1="95.26357" x2="14.63025" y2="95.59357"/><line class="cls-4" x1="22.07025" y1="94.76357" x2="22.26025" y2="94.65357"/><polyline class="cls-4" points="22.32 94.764 22.34 94.754 22.44 94.694 22.68 94.554"/><line class="cls-4" x1="22.81025" y1="94.94357" x2="23.13025" y2="94.75357"/><line class="cls-4" x1="14.79025" y1="93.97357" x2="14.79025" y2="94.38357"/><line class="cls-4" x1="29.78025" y1="103.03357" x2="14.79025" y2="94.38357"/><line class="cls-4" x1="29.78025" y1="103.03357" x2="29.78025" y2="102.62357"/><polyline class="cls-4" points="14.79 93.974 14.96 94.074 29.78 102.624"/><line class="cls-4" x1="29.78025" y1="94.04357" x2="29.78025" y2="93.64357"/><line class="cls-4" x1="29.78025" y1="100.58357" x2="29.78025" y2="100.17357"/><line class="cls-4" x1="29.78025" y1="101.39357" x2="29.78025" y2="100.99357"/><line class="cls-4" x1="29.78025" y1="102.21357" x2="29.78025" y2="101.80357"/><line class="cls-4" x1="29.78025" y1="98.13357" x2="27.01025" y2="96.53357"/><line class="cls-4" x1="29.78025" y1="98.13357" x2="29.78025" y2="97.72357"/><polyline class="cls-4" points="27.17 96.214 27.28 96.284 29.78 97.724"/><path class="cls-4" d="M27.01025,96.53357a.74473.74473,0,0,0,.16-.32"/><polyline class="cls-4" points="26.79 95.614 26.75 95.294 26.74 95.254 26.59 94.874 26.35 94.544 26.24 94.444 26.07 94.284 25.78 94.144 25.77 94.144 25.52 94.144 25.32 94.284 25.22 94.534 25.22 94.874 25.32 95.254 25.52 95.614 25.78 95.914 26.07 96.114 26.35 96.184 26.59 96.114 26.74 95.914 26.75 95.864 26.79 95.614"/><line class="cls-4" x1="29.78025" y1="97.31357" x2="29.78025" y2="96.90357"/><polyline class="cls-4" points="27.16 95.394 27.38 95.524 29.78 96.904"/><path class="cls-4" d="M27.22025,95.83357a1.66584,1.66584,0,0,0-.06-.44"/><line class="cls-4" x1="29.78025" y1="97.31357" x2="27.22025" y2="95.83357"/><line class="cls-4" x1="29.78025" y1="96.49357" x2="29.78025" y2="96.09357"/><polyline class="cls-4" points="26.56 94.234 26.99 94.484 29.78 96.094"/><path class="cls-4" d="M26.98025,94.88357a2.78222,2.78222,0,0,0-.42-.65"/><line class="cls-4" x1="29.78025" y1="96.49357" x2="26.98025" y2="94.88357"/><line class="cls-4" x1="29.78025" y1="94.86357" x2="29.78025" y2="94.45357"/><line class="cls-4" x1="20.09025" y1="93.76357" x2="20.09025" y2="94.17357"/><line class="cls-4" x1="29.78025" y1="99.76357" x2="24.47025" y2="96.70357"/><line class="cls-4" x1="29.78025" y1="99.76357" x2="29.78025" y2="99.35357"/><polyline class="cls-4" points="24.47 96.294 24.65 96.394 29.78 99.354"/><line class="cls-4" x1="24.47025" y1="96.70357" x2="24.47025" y2="96.29357"/><line class="cls-4" x1="29.78025" y1="98.94357" x2="24.47025" y2="95.88357"/><line class="cls-4" x1="29.78025" y1="98.94357" x2="29.78025" y2="98.54357"/><line class="cls-4" x1="26.64025" y1="96.72357" x2="29.78025" y2="98.54357"/><path class="cls-4" d="M25.36025,95.99357a1.5869,1.5869,0,0,0,1.28.73"/><polyline class="cls-4" points="24.47 95.474 24.65 95.584 25.36 95.994"/><line class="cls-4" x1="24.47025" y1="95.88357" x2="24.47025" y2="95.47357"/><line class="cls-4" x1="24.99025" y1="95.36357" x2="24.47025" y2="95.06357"/><path class="cls-4" d="M24.83025,94.86357a2.24045,2.24045,0,0,0,.16.5"/><polyline class="cls-4" points="24.47 94.664 24.65 94.764 24.83 94.864"/><line class="cls-4" x1="24.47025" y1="95.06357" x2="24.47025" y2="94.66357"/><line class="cls-4" x1="24.78025" y1="94.43357" x2="24.47025" y2="94.25357"/><path class="cls-4" d="M24.84025,94.05357a1.20884,1.20884,0,0,0-.06.38"/><polyline class="cls-4" points="24.47 93.844 24.65 93.944 24.84 94.054"/><line class="cls-4" x1="24.47025" y1="94.25357" x2="24.47025" y2="93.84357"/><line class="cls-4" x1="29.78025" y1="95.68357" x2="29.78025" y2="95.27357"/><line class="cls-4" x1="22.52025" y1="95.02357" x2="23.87025" y2="95.80357"/><polyline class="cls-4" points="32.22 103.134 32.33 103.144 32.54 103.074 32.74 102.904 32.91 102.674 33.03 102.414 33.07 102.154 33.03 101.944 32.96 101.864"/><path class="cls-4" d="M30.41025,103.68357a1.40332,1.40332,0,0,0,.63,1.37c.02.01.05.03.07.04"/><path class="cls-4" d="M26.99025,94.48357a.51709.51709,0,0,1,.06.13.30828.30828,0,0,1,.01.1.22018.22018,0,0,1-.01.08c-.01.02-.02.05-.04.06l-.03.03"/><path class="cls-4" d="M27.38025,95.52357v.02a.24852.24852,0,0,1-.01.08.133.133,0,0,1-.03.08c-.01.02-.03.05-.04.07-.02.02-.04.03-.06.05-.01,0-.01.01-.02.01"/><path class="cls-4" d="M27.28025,96.28357v.01c-.01.02-.03.04-.04.06a.43494.43494,0,0,0-.07.06c-.03.03-.06.05-.08.07a.2092.2092,0,0,0-.06.04c-.01,0-.02,0-.02.01"/><path class="cls-4" d="M24.47025,95.88357a.37172.37172,0,0,0,.18-.3"/><path class="cls-4" d="M24.47025,96.70357a.38919.38919,0,0,0,.18-.31"/><path class="cls-4" d="M25.77025,94.14357a1.5212,1.5212,0,0,0,.98,1.72h.01"/><polyline class="cls-4" points="26.75 95.294 26.66 95.304 26.53 95.264 26.39 95.154 26.28 94.994 26.2 94.824 26.18 94.644 26.2 94.504 26.24 94.444 26.25 94.434"/><path class="cls-4" d="M14.79025,94.78357a2.47309,2.47309,0,0,0,.05.38"/><line class="cls-4" x1="14.84025" y1="95.16357" x2="29.83025" y2="103.81357"/><path class="cls-4" d="M29.78025,103.43357a2.32049,2.32049,0,0,0,.05.38"/><polyline class="cls-4" points="29.78 103.434 14.98 94.894 14.79 94.784"/><path class="cls-4" d="M14.94025,95.49357a1.203,1.203,0,0,0,.16.27"/><line class="cls-4" x1="15.10025" y1="95.76357" x2="30.09025" y2="104.41357"/><path class="cls-4" d="M29.93025,104.14357a1.203,1.203,0,0,0,.16.27"/><polyline class="cls-4" points="29.93 104.144 15.17 95.624 14.94 95.494"/><path class="cls-4" d="M30.30025,104.62357c.03.02.07.05.1.07"/><polyline class="cls-4" points="30.3 104.624 15.52 96.094 15.31 95.974"/><path class="cls-4" d="M14.15025,94.29357a1.48065,1.48065,0,0,0,.55,1.33.30388.30388,0,0,1,.07.05"/><path class="cls-4" d="M24.47025,94.25357a.38919.38919,0,0,0,.18-.31"/><path class="cls-4" d="M14.79025,94.38357a.39387.39387,0,0,0,.17-.31"/><path class="cls-4" d="M24.47025,95.06357a.37172.37172,0,0,0,.18-.3"/><path class="cls-4" d="M14.84025,95.16357a.39784.39784,0,0,0,.14-.27"/><polyline class="cls-4" points="15.17 95.624 15.15 95.684 15.1 95.764"/><polyline class="cls-4" points="32.22 103.144 32.18 103.484 32.23 103.824 32.38 104.084 32.62 104.214 32.92 104.224 33.24 104.094 33.57 103.844 33.87 103.504 34.1 103.094 34.25 102.664 34.3 102.254"/><polyline class="cls-4" points="32.96 101.854 32.96 101.864 32.92 101.894 32.62 102.234 32.38 102.644 32.23 103.074 32.22 103.134"/><polyline class="cls-4" points="34.3 102.254 34.25 101.904 34.1 101.654 33.87 101.514 33.57 101.514 33.24 101.644 32.98 101.844"/><path class="cls-4" d="M37.69025,102.75357a3.88825,3.88825,0,0,0,.95-.81"/><line class="cls-4" x1="33.24025" y1="105.31357" x2="37.69025" y2="102.75357"/><path class="cls-4" d="M31.12025,104.09357a1.29948,1.29948,0,0,0,.64,1.34,1.423,1.423,0,0,0,.45.16,1.29124,1.29124,0,0,0,1.03-.28"/><line class="cls-4" x1="31.83025" y1="93.91357" x2="31.83025" y2="94.32357"/><line class="cls-4" x1="31.83025" y1="94.73357" x2="31.83025" y2="95.14357"/><line class="cls-4" x1="31.83025" y1="95.54357" x2="31.83025" y2="95.95357"/><line class="cls-4" x1="31.83025" y1="96.36357" x2="31.83025" y2="96.77357"/><line class="cls-4" x1="31.83025" y1="97.18357" x2="31.83025" y2="97.59357"/><line class="cls-4" x1="31.83025" y1="97.99357" x2="31.83025" y2="98.40357"/><line class="cls-4" x1="31.83025" y1="98.81357" x2="31.83025" y2="99.22357"/><line class="cls-4" x1="31.83025" y1="99.63357" x2="31.83025" y2="100.04357"/><line class="cls-4" x1="31.83025" y1="100.44357" x2="31.83025" y2="100.85357"/><polyline class="cls-4" points="31.84 101.264 44.51 93.944 45.04 93.634"/><path class="cls-4" d="M31.84025,101.26357a.34867.34867,0,0,0,.17.26"/><line class="cls-4" x1="32.94025" y1="101.03357" x2="32.05025" y2="101.54357"/><path class="cls-4" d="M33.55025,100.68357a2.06,2.06,0,0,0-.61.35"/><line class="cls-4" x1="44.34025" y1="94.45357" x2="33.55025" y2="100.68357"/><line class="cls-4" x1="44.34025" y1="94.45357" x2="45.04025" y2="93.63357"/><line class="cls-4" x1="43.10025" y1="95.57357" x2="43.63025" y2="95.27357"/><polyline class="cls-4" points="34.34 100.634 34.36 100.624 43.09 95.584"/><path class="cls-4" d="M34.68025,100.84357a1.33041,1.33041,0,0,0-.19-.14,1.00922,1.00922,0,0,0-.15-.07"/><line class="cls-4" x1="42.92025" y1="96.08357" x2="34.68025" y2="100.84357"/><line class="cls-4" x1="42.92025" y1="96.08357" x2="43.63025" y2="95.27357"/><polyline class="cls-4" points="34.87 101.144 41.69 97.214 42.22 96.904"/><path class="cls-4" d="M34.98025,101.48357a1.35206,1.35206,0,0,0-.11-.34"/><line class="cls-4" x1="41.51025" y1="97.72357" x2="34.98025" y2="101.48357"/><line class="cls-4" x1="41.51025" y1="97.72357" x2="42.22025" y2="96.90357"/><line class="cls-4" x1="38.68025" y1="100.98357" x2="34.92025" y2="103.15357"/><line class="cls-4" x1="38.68025" y1="100.98357" x2="39.39025" y2="100.17357"/><line class="cls-4" x1="38.86025" y1="100.47357" x2="39.39025" y2="100.17357"/><line class="cls-4" x1="34.87025" y1="102.77357" x2="38.85025" y2="100.48357"/><path class="cls-4" d="M34.87025,102.77357a.55027.55027,0,0,0,.05.38"/><polyline class="cls-4" points="35.01 101.874 40.27 98.844 40.8 98.534"/><path class="cls-4" d="M34.97025,102.31357a3.27045,3.27045,0,0,0,.04-.44"/><line class="cls-4" x1="40.09025" y1="99.35357" x2="34.97025" y2="102.31357"/><line class="cls-4" x1="40.09025" y1="99.35357" x2="40.80025" y2="98.53357"/><path class="cls-4" d="M14.01025,94.21357a1.45042,1.45042,0,0,0,.63,1.37c.02.01.04.03.06.04"/><path class="cls-4" d="M32.94025,101.03357c-.02-.01-.02-.02-.02-.04.01-.01.01-.02.02-.04a.1874.1874,0,0,1,.06-.07.58258.58258,0,0,1,.15-.11,1.41669,1.41669,0,0,1,.18-.08.35949.35949,0,0,1,.11-.02.07494.07494,0,0,1,.05-.01c.02.01.04.01.06.02"/><path class="cls-4" d="M31.88025,101.45357a.57361.57361,0,0,0,.07.04l.06.03a.052.052,0,0,0,.04.02"/><path class="cls-4" d="M44.51025,93.94357c-.19.23-.27.45-.17.51"/><path class="cls-4" d="M30.56025,103.76357a1.43442,1.43442,0,0,0,.55,1.33.42335.42335,0,0,0,.07.05"/><polyline class="cls-4" points="33.4 102.264 33.35 102.024 33.22 101.874 33.17 101.864 33.03 101.834 32.98 101.844 32.96 101.854"/><polyline class="cls-4" points="32.22 103.134 32.22 103.144 32.24 103.194 32.34 103.304 32.37 103.344 32.57 103.384 32.8 103.304 33.03 103.124 33.22 102.854 33.35 102.554 33.4 102.264"/><polyline class="cls-4" points="33.16 101.844 33.17 101.864 33.23 101.954 33.28 102.194 33.23 102.484 33.1 102.784 32.91 103.054 32.68 103.234 32.45 103.314 32.34 103.304 32.32 103.304"/><path class="cls-4" d="M43.10025,95.57357l-.01.01c-.19.23-.27.45-.17.5"/><path class="cls-4" d="M41.69025,97.21357c-.2.22-.28.45-.18.51"/><path class="cls-4" d="M40.27025,98.84357c-.19.22-.27.45-.18.51"/><path class="cls-4" d="M38.86025,100.47357l-.01.01c-.19.23-.27.45-.17.5"/><path class="cls-4" d="M13.44025,93.89357a1.469,1.469,0,0,0,.63,1.37"/><path class="cls-4" d="M20.74025,94.35357a1.2186,1.2186,0,0,0,.97.56"/><polyline class="cls-4" points="21.71 94.914 21.85 94.834 21.87 94.824"/><path class="cls-4" d="M21.87025,94.82357a.59781.59781,0,0,0,.48-.69"/><line class="cls-4" x1="22.19025" y1="94.22357" x2="22.35025" y2="94.13357"/><line class="cls-4" x1="22.03025" y1="94.13357" x2="22.19025" y2="94.22357"/><path class="cls-4" d="M21.63025,94.71357a.49891.49891,0,0,0,.4-.58"/><line class="cls-4" x1="21.63025" y1="94.71357" x2="21.71025" y2="94.91357"/><line class="cls-4" x1="20.74025" y1="94.35357" x2="20.81025" y2="94.24357"/><polyline class="cls-4" points="22.64 94.074 22.58 94.424 22.43 94.674 22.2 94.814 21.92 94.814"/><path class="cls-4" d="M22.99025,93.94357v-.08"/><path class="cls-4" d="M22.68025,94.55357a.66727.66727,0,0,0,.28-.41"/><line class="cls-4" x1="21.63025" y1="94.71357" x2="21.87025" y2="94.82357"/><polyline class="cls-4" points="21.35 93.844 21.44 93.874 21.51 93.854 21.56 93.804 21.56 93.794 21.57 93.774"/><polyline class="cls-4" points="22.99 93.944 22.96 94.144 22.94 94.314 22.78 94.594 22.53 94.734 22.34 94.754"/><polyline class="cls-4" points="23.2 94.074 23.15 94.474 22.99 94.784 22.8 94.934 22.74 94.974 22.64 94.994 22.42 95.024 22.05 94.944 21.85 94.834"/><path class="cls-4" d="M23.13025,94.75357a.92372.92372,0,0,0,.39-.87"/><line class="cls-4" x1="23.59025" y1="95.56357" x2="23.87025" y2="95.40357"/><line class="cls-4" x1="22.64025" y1="95.00357" x2="23.59025" y2="95.56357"/><path class="cls-4" d="M9.40025,77.87357a6.50814,6.50814,0,0,0,3.64,1.12c.14,0,.26-.01.4-.02"/><path class="cls-4" d="M9.21025,12.88357v.07c-.03,1.11-.06,2.22-.1,3.34-.05,1.49-.12,2.99-.2,4.49s-.17,3.01-.27,4.52c-.11,1.51-.22,3.02-.35,4.53-.11,1.27-.22,2.54-.34,3.81"/><path class="cls-4" d="M7.18025,40.72357a.12683.12683,0,0,1-.01.06c-.1.91-.21,1.83-.33,2.75-.19,1.53-.41,3.06-.63,4.59-.22,1.54-.45,3.07-.69,4.61-.25,1.54-.5,3.08-.77,4.62s-.54,3.08-.84,4.63c-.27,1.45-.56,2.91-.85,4.37"/><path class="cls-4" d="M3.33025,68.14357a3.16763,3.16763,0,0,1,.21.41,4.23192,4.23192,0,0,1,.27.78,6.0073,6.0073,0,0,1,.12.74,7.68875,7.68875,0,0,1,.01.96c-.01.1-.02.2-.02.3v.02"/><line class="cls-4" x1="3.91025" y1="72.13357" x2="3.84025" y2="73.21357"/><line class="cls-4" x1="3.96025" y1="71.32357" x2="3.91025" y2="72.12357"/><path class="cls-4" d="M3.06025,66.35357a4.363,4.363,0,0,0-.05.52,2.32784,2.32784,0,0,0,.06.53,1.84263,1.84263,0,0,0,.18.53c.02.04.05.07.07.11"/><line class="cls-4" x1="9.62025" y1="77.83357" x2="13.44025" y2="78.17357"/><path class="cls-4" d="M6.42025,77.55357c.24.02.48.04.71.06.83.07,1.66.15,2.49.22"/><path class="cls-4" d="M4.70025,76.61357c.06.07.12.16.18.22l.02.02a1.85711,1.85711,0,0,0,.41.33,2.546,2.546,0,0,0,.5.24,2.19662,2.19662,0,0,0,.55.13h.06"/><path class="cls-4" d="M11.13025,8.30357c-.06.27-.11.53-.18.8-.06.23-.12.46-.19.68a3.31913,3.31913,0,0,1-.2.47,3.44706,3.44706,0,0,1-.2.32,4.66649,4.66649,0,0,1-.35.46c-.04.05-.09.09-.13.14"/><path class="cls-4" d="M9.90025,11.19357a1.53707,1.53707,0,0,0-.17.19,2.01586,2.01586,0,0,0-.28.47,2.43331,2.43331,0,0,0-.18.58,4.363,4.363,0,0,0-.05.52"/><path class="cls-4" d="M26.37025,3.86357a.26072.26072,0,0,0-.11-.03"/><path class="cls-4" d="M26.87025,4.06357a3.43372,3.43372,0,0,0-.44-.19.09015.09015,0,0,0-.05-.01"/><line class="cls-4" x1="25.72025" y1="3.77357" x2="22.68025" y2="3.53357"/><line class="cls-4" x1="22.75025" y1="3.51357" x2="18.17025" y2="3.09357"/><path class="cls-4" d="M12.96025,3.57357a2.30952,2.30952,0,0,0-.3.32,3.29872,3.29872,0,0,0-.4.6c-.01.01-.01.02-.02.03a7.2686,7.2686,0,0,0-.52,1.26c-.12.41-.21.83-.29,1.24-.08.39-.14.78-.2,1.16"/><path class="cls-4" d="M13.16025,3.36357a1.538,1.538,0,0,0-.12.13"/><polyline class="cls-4" points="18.11 3.124 18.1 3.124 15.05 2.814"/><path class="cls-4" d="M15.05025,2.81357a4.214,4.214,0,0,0-.5-.01,2.6479,2.6479,0,0,0-.49.09,2.252,2.252,0,0,0-.45.19,2.858,2.858,0,0,0-.4.28h-.01"/><polyline class="cls-4" points="29.31 13.734 29.26 13.634 29.03 13.204"/><path class="cls-4" d="M28.66025,10.63357c0-.01-.01-.03-.01-.04-.01-.04-.01-.09-.02-.15-.01-.08-.02-.17-.03-.28-.01-.12-.01-.25-.02-.39v-.38"/><path class="cls-4" d="M28.67025,10.66357v-.02l-.01-.01"/><path class="cls-4" d="M28.69025,10.70357a.03674.03674,0,0,1-.01-.03"/><path class="cls-4" d="M28.72025,10.87357a.27686.27686,0,0,0-.01-.09"/><path class="cls-4" d="M24.14025,65.06357c.05-.99.09-1.98.14-2.98.07-1.49.17-3,.27-4.51s.22-3.02.34-4.53c.13-1.52.27-3.03.42-4.55s.31-3.04.48-4.56c.17-1.53.36-3.06.56-4.59.19-1.53.4-3.06.62-4.6.22-1.53.46-3.07.7-4.6.24-1.54.5-3.08.76-4.62.27-1.54.55-3.09.84-4.63.28-1.46.57-2.92.86-4.37"/><line class="cls-4" x1="12.47025" y1="79.54357" x2="13.44025" y2="79.63357"/><line class="cls-4" x1="10.43025" y1="79.36357" x2="10.79025" y2="79.39357"/><path class="cls-4" d="M6.53025,78.92357a1.04953,1.04953,0,0,0,.23.08.09015.09015,0,0,1,.05.01"/><path class="cls-4" d="M6.31025,78.80357a1.61793,1.61793,0,0,0,.18.1"/><polyline class="cls-4" points="29.88 14.834 29.62 14.334 29.59 14.274"/><path class="cls-4" d="M28.93025,11.14357a.42854.42854,0,0,0-.21-.21c-.01-.01-.03-.01-.04-.02"/><path class="cls-4" d="M29.85025,14.73357c-.07-.13-.14-.27-.21-.41a4.20161,4.20161,0,0,1-.26-.78,4.56731,4.56731,0,0,1-.12-.74,6.283,6.283,0,0,1-.01-.97c0-.1.01-.2.02-.31"/><path class="cls-4" d="M29.93025,14.94357a.41293.41293,0,0,0-.07-.11"/><path class="cls-4" d="M29.97025,15.03357a.14213.14213,0,0,0-.02-.06"/><line class="cls-4" x1="30.12025" y1="16.52357" x2="30.12025" y2="16.51357"/><path class="cls-4" d="M29.90025,14.87357l-.01-.01c0-.01-.01-.02-.01-.03"/><line class="cls-4" x1="29.27025" y1="10.84357" x2="29.28025" y2="10.75357"/><line class="cls-4" x1="29.23025" y1="11.49357" x2="29.24025" y2="11.39357"/><line class="cls-4" x1="29.23025" y1="11.55357" x2="29.23025" y2="11.50357"/><polyline class="cls-4" points="28.48 6.264 28.32 6.064 28.3 6.044"/><path class="cls-4" d="M24.47025,35.79357a.54771.54771,0,0,0-.31-.25"/><path class="cls-4" d="M24.16025,35.54357c-.43-.12-.86-.24-1.29-.35-.82-.21-1.64-.4-2.47-.57-.82-.17-1.66-.32-2.49-.45-.84-.13-1.68-.23-2.52-.32-.85-.09-1.69-.15-2.54-.2-.85-.04-1.69-.06-2.54-.06-.79,0-1.57.01-2.36.05-.06,0-.13.01-.19.01-.85.04-1.71.11-2.56.19"/><line class="cls-4" x1="25.21025" y1="37.22357" x2="24.47025" y2="35.79357"/><path class="cls-4" d="M4.29025,38.35357a.42165.42165,0,0,0,.05.29"/><line class="cls-4" x1="4.75025" y1="34.28357" x2="4.29025" y2="38.35357"/><line class="cls-4" x1="4.34025" y1="38.64357" x2="5.08025" y2="40.06357"/><path class="cls-4" d="M5.20025,33.84357a.5.5,0,0,0-.45.44"/><line class="cls-4" x1="15.02025" y1="71.47357" x2="14.57025" y2="71.74357"/><line class="cls-4" x1="16.81025" y1="75.63357" x2="16.90025" y2="75.59357"/><line class="cls-4" x1="25.31025" y1="93.56357" x2="25.21025" y2="93.62357"/><line class="cls-4" x1="17.88025" y1="89.27357" x2="17.78025" y2="89.33357"/><line class="cls-4" x1="14.77025" y1="70.46357" x2="14.07025" y2="70.87357"/><polyline class="cls-4" points="42.35 54.554 41.69 54.924 41.64 54.954"/><line class="cls-4" x1="20.59025" y1="92.44357" x2="20.53025" y2="92.47357"/><line class="cls-4" x1="20.89025" y1="92.27357" x2="20.59025" y2="92.43357"/><line class="cls-4" x1="21.18025" y1="91.95357" x2="20.83025" y2="92.16357"/><line class="cls-4" x1="21.23025" y1="91.46357" x2="20.91025" y2="91.64357"/><path class="cls-4" d="M19.21025,44.20357c.26-.21.52-.43.76-.65.04-.03.07-.07.11-.1a4.97021,4.97021,0,0,0,.72-.87c.07-.12.14-.23.21-.35v-.01"/><path class="cls-4" d="M29.53025,15.38357q-2.73,12.345-4.25,24.89-1.515,12.54-1.83,25.19"/><path class="cls-4" d="M9.60025,41.37357c.04.13.07.24.12.37a4.70074,4.70074,0,0,0,.46.89c.19.28.4.55.61.82"/><path class="cls-4" d="M9.57025,41.27357c0,.01.01.02.01.03v.02"/><path class="cls-4" d="M15.97025,45.46357a4.04545,4.04545,0,0,1-.49.04,6.18956,6.18956,0,0,1-1.05-.08,5.93083,5.93083,0,0,1-1.01-.24,6.63934,6.63934,0,0,1-.95-.41,5.52077,5.52077,0,0,1-.86-.56,9.83594,9.83594,0,0,1-.82-.76"/><path class="cls-4" d="M16.52025,45.39357c-.11.02-.23.04-.34.05"/><path class="cls-4" d="M17.53025,45.12357c-.16.06-.33.11-.5.16"/><path class="cls-4" d="M19.21025,44.20357a6.83729,6.83729,0,0,1-.8.52c-.14.08-.28.15-.43.22"/><line class="cls-4" x1="3.35025" y1="68.14357" x2="3.31025" y2="68.05357"/><path class="cls-4" d="M3.94025,71.35357c-.01-.01-.01-.01-.01-.02.01,0,.02-.01.03-.01h.01"/><path class="cls-4" d="M3.82025,73.45357c.02.33.03.67.07,1a5.76415,5.76415,0,0,0,.22,1,4.286,4.286,0,0,0,.49,1.01c.03.04.06.09.09.13"/><path class="cls-4" d="M3.91025,72.12357v.01c-.03.15-.05.32-.07.51-.01.25-.01.53-.02.81"/><path class="cls-4" d="M19.18025,34.33357a6.26912,6.26912,0,0,0-5.77-.69"/><path class="cls-4" d="M9.58025,41.32357c.01.02.01.03.02.05a6.22348,6.22348,0,0,0,6.37,4.09,1.49189,1.49189,0,0,0,.21-.02c.11-.01.23-.03.34-.05a4.64449,4.64449,0,0,0,.51-.11,4.5804,4.5804,0,0,0,.49-.15l.01-.01a4.21951,4.21951,0,0,0,.45-.18,6.14,6.14,0,0,0,2.95-2.71"/><path class="cls-4" d="M18.55025,34.22357a5.88782,5.88782,0,0,0-4.83-.55"/><path class="cls-4" d="M9.97025,41.39357a5.864,5.864,0,0,0,10.3.86"/><polyline class="cls-4" points="3.31 68.044 3.31 68.054 3.33 68.074"/><line class="cls-4" x1="28.96025" y1="13.04357" x2="29.00025" y2="13.13357"/><path class="cls-4" d="M11.25025,8.18357l-.01.01c-.02.03-.04.05-.05.07v.05"/><path class="cls-4" d="M28.55025,7.87357a8.4237,8.4237,0,0,0-.07-1.01,4.36072,4.36072,0,0,0-.16-.8c-.02-.07-.04-.13-.06-.2a3.28119,3.28119,0,0,0-.2-.52,2.95824,2.95824,0,0,0-.28-.49.642.642,0,0,0-.1-.13"/><path class="cls-4" d="M28.58025,9.39357v-.13c0-.16-.01-.34-.01-.52-.01-.29-.01-.58-.02-.87"/><path class="cls-4" d="M27.68025,4.72357a1.78222,1.78222,0,0,0-.6-.56,1.89447,1.89447,0,0,0-.21-.09"/><polyline class="cls-4" points="26.38 3.864 26.37 3.864 26.33 3.844 26.26 3.834 25.97 3.794"/><path class="cls-4" d="M25.97025,3.79357a2.10522,2.10522,0,0,0-.25-.02c-.45-.04-.89-.08-1.35-.12-.26-.02-.53-.04-.8-.07-.26-.02-.53-.04-.8-.07"/><line class="cls-4" x1="18.10025" y1="3.13357" x2="18.17025" y2="3.11357"/><path class="cls-4" d="M13.11025,3.40357a.54956.54956,0,0,0-.07.09.30435.30435,0,0,0-.08.08"/><path class="cls-4" d="M12.24025,4.52357c-.04.06-.07.13-.11.19a3.92431,3.92431,0,0,0-.34.79q-.135.42-.24.84"/><polyline class="cls-4" points="18.13 3.104 17.38 3.034 16.56 2.954 15.01 2.804"/><path class="cls-4" d="M29.26025,13.63357c-.07-.13-.13-.26-.19-.39a4.60265,4.60265,0,0,1-.19-.52,3.71766,3.71766,0,0,1-.14-.74,6.79229,6.79229,0,0,1-.04-.78c0-.05.01-.11.01-.16a.4102.4102,0,0,1,.01-.11c-.01-.02,0-.03,0-.05"/><path class="cls-4" d="M29.53025,15.38357a2.336,2.336,0,0,0-.21-1.62.03674.03674,0,0,0-.01-.03"/><line class="cls-4" x1="28.72025" y1="10.88357" x2="28.72025" y2="10.87357"/><path class="cls-4" d="M29.80025,15.89357a260.85078,260.85078,0,0,0-6.07,49.41"/><path class="cls-4" d="M7.21025,79.08357c.54.04,1.07.09,1.6.13.27.03.54.05.8.07.27.03.53.05.8.07"/><path class="cls-4" d="M3.65025,67.48357a1.25042,1.25042,0,0,0-.03.19,2.74632,2.74632,0,0,0,.06.99"/><path class="cls-4" d="M5.50025,78.15357a2.32949,2.32949,0,0,0,.61.56,2.69493,2.69493,0,0,0,.38.19.07581.07581,0,0,0,.04.02,1.51751,1.51751,0,0,0,.28.09c.01,0,.03.01.04.01a2.25422,2.25422,0,0,0,.36.06"/><line class="cls-4" x1="5.48025" y1="78.13357" x2="5.50025" y2="78.15357"/><polyline class="cls-4" points="4.88 76.834 4.92 77.014 5.41 78.024 5.48 78.124"/><path class="cls-4" d="M29.80025,15.89357a2.44444,2.44444,0,0,0-.21-1.62c-.01-.01-.01-.02-.02-.03"/><line class="cls-4" x1="29.57025" y1="14.24357" x2="29.53025" y2="14.14357"/><path class="cls-4" d="M29.96025,14.99357a.031.031,0,0,1-.01-.02c-.01-.01-.01-.02-.02-.03-.01-.02-.02-.05-.03-.07"/><path class="cls-4" d="M30.12025,16.49357a2.54936,2.54936,0,0,0-.03-1.1,2.12892,2.12892,0,0,0-.11-.33"/><path class="cls-4" d="M29.28025,10.75357v-.01a3.57634,3.57634,0,0,0,.06-.51c.02-.25.02-.53.02-.81"/><path class="cls-4" d="M29.36025,9.42357a8.4021,8.4021,0,0,0-.07-1,4.96916,4.96916,0,0,0-.22-1,3.75,3.75,0,0,0-.48-1.01.642.642,0,0,0-.1-.13"/><polyline class="cls-4" points="28.49 6.254 28.49 6.264 28.49 6.284"/><path class="cls-4" d="M5.37025,40.30357q.9.255,1.8.48c.8.2,1.6.37,2.41.52a2.70019,2.70019,0,0,0,.39.08,50.886,50.886,0,0,0,10.3.87c.22,0,.44-.01.66-.02h.08c1.11-.04,2.22-.11,3.32-.22"/><path class="cls-4" d="M24.33025,42.01357a.51055.51055,0,0,0,.46-.44"/><polyline class="cls-4" points="24.79 41.574 24.94 40.234 25.26 37.494"/><path class="cls-4" d="M25.26025,37.49357a.50251.50251,0,0,0-.05-.27"/><path class="cls-4" d="M5.08025,40.06357a.459.459,0,0,0,.29.24"/><polyline class="cls-4" points="19.36 91.324 19.32 91.004 19.31 90.964 19.16 90.594 18.92 90.254 18.81 90.154 18.64 89.994 18.35 89.864 18.34 89.864 18.09 89.864 17.89 89.994 17.79 90.254 17.79 90.584 17.89 90.964 18.09 91.324 18.35 91.624 18.64 91.824 18.92 91.894 19.16 91.824 19.31 91.634 19.32 91.574 19.36 91.324"/><line class="cls-4" x1="29.00025" y1="79.59357" x2="15.57025" y2="71.84357"/><path class="cls-4" d="M30.41025,82.04357a3.05932,3.05932,0,0,0-1.41-2.45"/><line class="cls-4" x1="30.41025" y1="103.68357" x2="30.41025" y2="82.04357"/><line class="cls-4" x1="14.15025" y1="72.65357" x2="14.15025" y2="94.29357"/><path class="cls-4" d="M15.57025,71.84357a.872.872,0,0,0-1.23.12.81975.81975,0,0,0-.2.54.75687.75687,0,0,0,.01.15"/><polyline class="cls-4" points="30.02 81.494 30.01 81.434 29.93 81.194 29.86 81.004 29.62 80.594 29.48 80.434 29.33 80.254 29.26 80.204 29 80.004 28.67 79.874 28.38 79.874 28.14 80.014 27.99 80.264 27.94 80.614 27.99 81.024 28.14 81.454 28.38 81.854 28.67 82.204 29 82.454 29.33 82.584 29.62 82.574 29.86 82.444 30.01 82.184 30.06 81.844"/><line class="cls-4" x1="30.06025" y1="81.84357" x2="30.02025" y2="81.50357"/><polyline class="cls-4" points="15.84 72.454 15.57 72.244 15.24 72.114 14.94 72.124 14.71 72.254 14.56 72.514 14.5 72.864 14.56 73.274 14.71 73.694 14.94 74.104 15.24 74.444 15.57 74.694 15.89 74.824 16.19 74.824 16.42 74.684 16.57 74.434 16.63 74.084"/><polyline class="cls-4" points="16.63 74.084 16.58 73.754 16.57 73.674 16.49 73.444 16.42 73.244 16.19 72.844 16.06 72.694 15.89 72.494 15.85 72.454"/><line class="cls-4" x1="26.53025" y1="78.90357" x2="18.04025" y2="74.00357"/><path class="cls-4" d="M18.04025,74.00357a.5258.5258,0,0,0-.47-.07"/><line class="cls-4" x1="26.99025" y1="79.37357" x2="17.57025" y2="73.93357"/><path class="cls-4" d="M26.99025,79.37357a1.37816,1.37816,0,0,0-.46-.47"/><path class="cls-4" d="M27.23025,80.14357a.97373.97373,0,0,0-.02-.24"/><polyline class="cls-4" points="17.35 74.224 17.51 74.314 27.21 79.904"/><path class="cls-4" d="M17.35025,74.22357a1.49189,1.49189,0,0,0-.02.21"/><path class="cls-4" d="M17.33025,74.61357v-.18"/><line class="cls-4" x1="27.24025" y1="80.33357" x2="17.33025" y2="74.61357"/><path class="cls-4" d="M27.23025,80.14357a1.1483,1.1483,0,0,0,.01.19"/><polyline class="cls-4" points="17.27 74.984 17.39 75.054 27.29 80.774"/><path class="cls-4" d="M17.13025,75.31357a.968.968,0,0,0,.14-.33"/><line class="cls-4" x1="27.43025" y1="81.26357" x2="17.13025" y2="75.31357"/><path class="cls-4" d="M27.29025,80.77357a4.50485,4.50485,0,0,0,.14.49"/><polyline class="cls-4" points="16.89 75.584 16.9 75.594 27.67 81.804"/><path class="cls-4" d="M16.47025,75.75357a.9847.9847,0,0,0,.34-.12.55821.55821,0,0,0,.08-.05"/><line class="cls-4" x1="28.10025" y1="82.46357" x2="16.47025" y2="75.75357"/><path class="cls-4" d="M27.67025,81.80357a4.66326,4.66326,0,0,0,.43.66"/><line class="cls-4" x1="15.12025" y1="75.38357" x2="29.45025" y2="83.64357"/><path class="cls-4" d="M15.12025,75.38357a.07638.07638,0,0,0-.05.02.35239.35239,0,0,0-.24.22"/><line class="cls-4" x1="29.73025" y1="84.22357" x2="14.83025" y2="75.62357"/><path class="cls-4" d="M29.73025,84.22357a1.56278,1.56278,0,0,0-.28-.58"/><polyline class="cls-4" points="14.79 76.004 14.96 76.104 29.78 84.654"/><line class="cls-4" x1="14.79025" y1="76.00357" x2="14.79025" y2="76.41357"/><line class="cls-4" x1="29.78025" y1="85.06357" x2="14.79025" y2="76.41357"/><line class="cls-4" x1="29.78025" y1="85.06357" x2="29.78025" y2="84.65357"/><polyline class="cls-4" points="14.79 76.824 14.96 76.924 29.78 85.474"/><line class="cls-4" x1="14.79025" y1="76.82357" x2="14.79025" y2="77.23357"/><line class="cls-4" x1="29.78025" y1="85.88357" x2="14.79025" y2="77.23357"/><line class="cls-4" x1="29.78025" y1="85.88357" x2="29.78025" y2="85.47357"/><line class="cls-4" x1="14.79025" y1="77.63357" x2="29.78025" y2="86.29357"/><line class="cls-4" x1="14.79025" y1="77.63357" x2="14.79025" y2="78.04357"/><line class="cls-4" x1="29.78025" y1="86.69357" x2="14.79025" y2="78.04357"/><line class="cls-4" x1="29.78025" y1="86.69357" x2="29.78025" y2="86.29357"/><polyline class="cls-4" points="14.79 78.454 14.96 78.554 29.78 87.104"/><line class="cls-4" x1="14.79025" y1="78.45357" x2="14.79025" y2="78.86357"/><line class="cls-4" x1="29.78025" y1="87.51357" x2="14.79025" y2="78.86357"/><line class="cls-4" x1="29.78025" y1="87.51357" x2="29.78025" y2="87.10357"/><polyline class="cls-4" points="14.79 79.274 14.96 79.374 29.78 87.924"/><line class="cls-4" x1="14.79025" y1="79.27357" x2="14.79025" y2="79.68357"/><line class="cls-4" x1="29.78025" y1="88.33357" x2="14.79025" y2="79.68357"/><line class="cls-4" x1="29.78025" y1="88.33357" x2="29.78025" y2="87.92357"/><line class="cls-4" x1="14.79025" y1="80.08357" x2="29.78025" y2="88.74357"/><line class="cls-4" x1="14.79025" y1="80.08357" x2="14.79025" y2="80.49357"/><line class="cls-4" x1="29.78025" y1="89.14357" x2="14.79025" y2="80.49357"/><line class="cls-4" x1="29.78025" y1="89.14357" x2="29.78025" y2="88.74357"/><polyline class="cls-4" points="14.79 80.904 14.96 81.004 29.78 89.554"/><line class="cls-4" x1="14.79025" y1="80.90357" x2="14.79025" y2="81.31357"/><line class="cls-4" x1="29.78025" y1="89.96357" x2="14.79025" y2="81.31357"/><line class="cls-4" x1="29.78025" y1="89.96357" x2="29.78025" y2="89.55357"/><polyline class="cls-4" points="14.79 81.724 14.96 81.824 29.78 90.374"/><line class="cls-4" x1="14.79025" y1="81.72357" x2="14.79025" y2="82.13357"/><line class="cls-4" x1="29.78025" y1="90.78357" x2="14.79025" y2="82.13357"/><line class="cls-4" x1="29.78025" y1="90.78357" x2="29.78025" y2="90.37357"/><line class="cls-4" x1="14.79025" y1="82.53357" x2="29.78025" y2="91.19357"/><line class="cls-4" x1="14.79025" y1="82.53357" x2="14.79025" y2="82.94357"/><line class="cls-4" x1="29.78025" y1="91.59357" x2="14.79025" y2="82.94357"/><line class="cls-4" x1="29.78025" y1="91.59357" x2="29.78025" y2="91.19357"/><polyline class="cls-4" points="14.79 83.354 14.96 83.454 29.78 92.004"/><line class="cls-4" x1="14.79025" y1="83.35357" x2="14.79025" y2="83.76357"/><line class="cls-4" x1="29.78025" y1="92.41357" x2="14.79025" y2="83.76357"/><line class="cls-4" x1="29.78025" y1="92.41357" x2="29.78025" y2="92.00357"/><polyline class="cls-4" points="14.79 84.174 14.96 84.274 29.78 92.824"/><line class="cls-4" x1="14.79025" y1="84.17357" x2="14.79025" y2="84.58357"/><line class="cls-4" x1="29.78025" y1="93.23357" x2="14.79025" y2="84.58357"/><line class="cls-4" x1="29.78025" y1="93.23357" x2="29.78025" y2="92.82357"/><line class="cls-4" x1="14.79025" y1="84.98357" x2="29.78025" y2="93.64357"/><line class="cls-4" x1="14.79025" y1="84.98357" x2="14.79025" y2="85.39357"/><line class="cls-4" x1="29.78025" y1="94.04357" x2="14.79025" y2="85.39357"/><polyline class="cls-4" points="14.79 89.074 14.96 89.174 17.4 90.574"/><line class="cls-4" x1="14.79025" y1="89.07357" x2="14.79025" y2="89.48357"/><line class="cls-4" x1="17.56025" y1="91.08357" x2="14.79025" y2="89.48357"/><path class="cls-4" d="M17.40025,90.57357a2.32147,2.32147,0,0,0,.16.51"/><polyline class="cls-4" points="14.79 91.524 14.96 91.624 29.78 100.174"/><line class="cls-4" x1="14.79025" y1="91.52357" x2="14.79025" y2="91.93357"/><line class="cls-4" x1="29.78025" y1="100.58357" x2="14.79025" y2="91.93357"/><line class="cls-4" x1="14.79025" y1="92.33357" x2="29.78025" y2="100.99357"/><line class="cls-4" x1="14.79025" y1="92.33357" x2="14.79025" y2="92.74357"/><line class="cls-4" x1="29.78025" y1="101.39357" x2="14.79025" y2="92.74357"/><polyline class="cls-4" points="14.79 93.154 14.96 93.254 29.78 101.804"/><line class="cls-4" x1="14.79025" y1="93.15357" x2="14.79025" y2="93.56357"/><line class="cls-4" x1="29.78025" y1="102.21357" x2="14.79025" y2="93.56357"/><line class="cls-4" x1="14.79025" y1="87.43357" x2="14.79025" y2="87.84357"/><line class="cls-4" x1="17.59025" y1="89.46357" x2="14.79025" y2="87.84357"/><path class="cls-4" d="M18.00025,89.29357a.57.57,0,0,0-.22.04c-.02.01-.05.03-.07.04a.47008.47008,0,0,0-.12.09"/><polyline class="cls-4" points="14.79 87.434 17.93 89.254 18 89.294"/><line class="cls-4" x1="14.79025" y1="88.25357" x2="14.79025" y2="88.66357"/><line class="cls-4" x1="17.35025" y1="90.14357" x2="14.79025" y2="88.66357"/><path class="cls-4" d="M17.41025,89.76357a1.20884,1.20884,0,0,0-.06.38"/><polyline class="cls-4" points="14.79 88.254 14.96 88.354 17.41 89.764"/><polyline class="cls-4" points="14.79 85.804 14.96 85.904 29.78 94.454"/><line class="cls-4" x1="14.79025" y1="85.80357" x2="14.79025" y2="86.21357"/><line class="cls-4" x1="20.09025" y1="89.27357" x2="14.79025" y2="86.21357"/><line class="cls-4" x1="20.09025" y1="89.25357" x2="20.09025" y2="89.27357"/><line class="cls-4" x1="24.47025" y1="91.78357" x2="20.09025" y2="89.25357"/><line class="cls-4" x1="24.47025" y1="91.80357" x2="24.47025" y2="91.78357"/><line class="cls-4" x1="29.78025" y1="94.86357" x2="24.47025" y2="91.80357"/><polyline class="cls-4" points="14.79 86.624 14.96 86.724 20.09 89.684"/><line class="cls-4" x1="14.79025" y1="86.62357" x2="14.79025" y2="87.03357"/><line class="cls-4" x1="20.09025" y1="90.08357" x2="14.79025" y2="87.03357"/><line class="cls-4" x1="20.09025" y1="89.68357" x2="20.09025" y2="90.08357"/><polyline class="cls-4" points="19.13 89.944 19.56 90.194 20.09 90.494"/><path class="cls-4" d="M19.55025,90.59357a3.00641,3.00641,0,0,0-.42-.65"/><line class="cls-4" x1="20.09025" y1="90.90357" x2="19.55025" y2="90.59357"/><line class="cls-4" x1="20.09025" y1="90.49357" x2="20.09025" y2="90.90357"/><polyline class="cls-4" points="19.73 91.104 19.95 91.234 20.09 91.314"/><path class="cls-4" d="M19.79025,91.55357a1.74,1.74,0,0,0-.06-.45"/><line class="cls-4" x1="20.09025" y1="91.72357" x2="19.79025" y2="91.55357"/><line class="cls-4" x1="20.09025" y1="91.31357" x2="20.09025" y2="91.72357"/><line class="cls-4" x1="19.85025" y1="92.00357" x2="20.09025" y2="92.13357"/><line class="cls-4" x1="19.74025" y1="91.93357" x2="19.85025" y2="91.99357"/><path class="cls-4" d="M19.58025,92.24357a.76675.76675,0,0,0,.16-.31"/><line class="cls-4" x1="20.09025" y1="92.53357" x2="19.58025" y2="92.24357"/><line class="cls-4" x1="20.09025" y1="92.13357" x2="20.09025" y2="92.53357"/><line class="cls-4" x1="19.21025" y1="92.43357" x2="20.09025" y2="92.94357"/><path class="cls-4" d="M17.93025,91.70357a1.56213,1.56213,0,0,0,1.28.73"/><line class="cls-4" x1="14.79025" y1="89.88357" x2="17.93025" y2="91.70357"/><line class="cls-4" x1="14.79025" y1="89.88357" x2="14.79025" y2="90.29357"/><line class="cls-4" x1="20.09025" y1="93.35357" x2="14.79025" y2="90.29357"/><line class="cls-4" x1="20.09025" y1="92.94357" x2="20.09025" y2="93.35357"/><polyline class="cls-4" points="14.79 90.704 14.96 90.804 20.09 93.764"/><line class="cls-4" x1="14.79025" y1="90.70357" x2="14.79025" y2="91.11357"/><line class="cls-4" x1="20.09025" y1="94.17357" x2="14.79025" y2="91.11357"/><path class="cls-4" d="M25.43025,93.58357a.7801.7801,0,0,0-.22.04c-.02.01-.05.03-.07.04a.47008.47008,0,0,0-.12.09"/><polyline class="cls-4" points="24.47 93.024 24.65 93.134 25.35 93.534 25.43 93.584"/><line class="cls-4" x1="24.47025" y1="93.43357" x2="24.47025" y2="93.02357"/><line class="cls-4" x1="25.02025" y1="93.75357" x2="24.47025" y2="93.43357"/><line class="cls-4" x1="29.78025" y1="95.68357" x2="24.47025" y2="92.61357"/><polyline class="cls-4" points="24.47 92.214 24.65 92.314 29.78 95.274"/><line class="cls-4" x1="24.47025" y1="92.61357" x2="24.47025" y2="92.21357"/><line class="cls-4" x1="20.69025" y1="90.29357" x2="20.69025" y2="91.85357"/><polyline class="cls-4" points="23.87 95.804 23.87 95.404 23.87 92.134"/><polyline class="cls-4" points="23.87 92.134 21.04 90.504 20.69 90.294"/><polyline class="cls-4" points="29.28 80.204 29.26 80.204 29.21 80.194 29.07 80.224 29.02 80.234 28.89 80.384 28.84 80.624 28.89 80.914 29.02 81.214 29.21 81.484 29.44 81.664 29.67 81.744 29.87 81.704 29.9 81.664 30 81.554 30.02 81.504 30.02 81.494"/><polyline class="cls-4" points="56.26 77.944 56.27 77.944 56.37 77.954 56.58 77.884 56.78 77.724 56.95 77.484 57.07 77.224 57.11 76.964 57.07 76.754 57 76.674"/><polyline class="cls-4" points="28.96 80.554 29.01 80.314 29.07 80.224 29.08 80.204"/><polyline class="cls-4" points="29.93 81.664 29.9 81.664 29.8 81.674 29.57 81.594 29.34 81.404 29.14 81.144 29.01 80.844 28.96 80.554"/><path class="cls-4" d="M15.07025,75.40357c0,.01-.01.01-.02.02a.26513.26513,0,0,1-.05.06.43494.43494,0,0,0-.07.06.26513.26513,0,0,1-.06.05c-.01.01-.03.02-.04.03"/><path class="cls-4" d="M17.51025,74.33357a.52278.52278,0,0,1-.06.16.45609.45609,0,0,1-.12.12"/><path class="cls-4" d="M17.51025,74.30357v.03"/><path class="cls-4" d="M14.79025,76.41357a.37938.37938,0,0,0,.17-.31"/><path class="cls-4" d="M17.39025,75.05357v.02a.3112.3112,0,0,0-.04.06.43494.43494,0,0,0-.06.07c-.03.02-.05.04-.08.06-.02.02-.04.03-.06.05h-.02"/><path class="cls-4" d="M14.79025,77.23357a.39387.39387,0,0,0,.17-.31"/><path class="cls-4" d="M14.79025,78.04357a.36181.36181,0,0,0,.17-.3"/><path class="cls-4" d="M14.79025,78.86357a.37938.37938,0,0,0,.17-.31"/><path class="cls-4" d="M14.79025,79.68357a.39387.39387,0,0,0,.17-.31"/><path class="cls-4" d="M14.79025,80.49357a.36181.36181,0,0,0,.17-.3"/><path class="cls-4" d="M14.79025,81.31357a.37938.37938,0,0,0,.17-.31"/><path class="cls-4" d="M14.79025,82.13357a.39387.39387,0,0,0,.17-.31"/><path class="cls-4" d="M14.79025,82.94357a.36181.36181,0,0,0,.17-.3"/><path class="cls-4" d="M14.79025,83.76357a.37938.37938,0,0,0,.17-.31"/><path class="cls-4" d="M14.79025,84.58357a.39387.39387,0,0,0,.17-.31"/><path class="cls-4" d="M14.79025,85.39357a.36181.36181,0,0,0,.17-.3"/><path class="cls-4" d="M14.79025,86.21357a.37938.37938,0,0,0,.17-.31"/><path class="cls-4" d="M24.47025,91.80357a.43494.43494,0,0,0,.07-.06"/><line class="cls-4" x1="20.16025" y1="89.21357" x2="24.54025" y2="91.74357"/><path class="cls-4" d="M24.47025,92.61357a.37172.37172,0,0,0,.18-.3"/><polyline class="cls-4" points="15.85 72.454 15.84 72.454 15.78 72.444 15.64 72.474 15.58 72.484 15.45 72.634 15.41 72.874 15.45 73.164 15.58 73.464 15.78 73.724 16.01 73.914 16.24 73.994 16.43 73.954 16.46 73.914 16.56 73.804 16.58 73.754 16.59 73.734"/><polyline class="cls-4" points="15.53 72.804 15.58 72.564 15.64 72.474 15.65 72.454"/><polyline class="cls-4" points="16.49 73.914 16.46 73.914 16.36 73.924 16.13 73.844 15.9 73.654 15.71 73.394 15.58 73.094 15.53 72.804"/><path class="cls-4" d="M14.79025,91.93357a.39387.39387,0,0,0,.17-.31"/><line class="cls-4" x1="24.54025" y1="91.74357" x2="24.47025" y2="91.78357"/><line class="cls-4" x1="20.16025" y1="89.21357" x2="20.09025" y2="89.25357"/><path class="cls-4" d="M14.79025,92.74357a.36181.36181,0,0,0,.17-.3"/><polyline class="cls-4" points="25.31 93.564 25.35 93.534 25.36 93.534"/><path class="cls-4" d="M24.47025,93.43357a.37172.37172,0,0,0,.18-.3"/><path class="cls-4" d="M14.79025,93.56357a.37938.37938,0,0,0,.17-.31"/><path class="cls-4" d="M14.79025,87.03357a.39387.39387,0,0,0,.17-.31"/><path class="cls-4" d="M19.56025,90.19357a.51709.51709,0,0,1,.06.13.34019.34019,0,0,1,.01.1.195.195,0,0,1-.01.08.09183.09183,0,0,1-.04.06l-.03.03"/><path class="cls-4" d="M19.95025,91.23357v.02a.22018.22018,0,0,1-.01.08.133.133,0,0,1-.03.08c-.01.02-.03.05-.04.07a.26513.26513,0,0,1-.06.05l-.02.02"/><path class="cls-4" d="M18.34025,89.85357v.01a1.5095,1.5095,0,0,0,.98,1.71h.01"/><path class="cls-4" d="M19.85025,91.99357v.01c-.01.02-.03.04-.04.06a.23364.23364,0,0,0-.07.07.55469.55469,0,0,0-.08.06c-.02.01-.04.03-.06.04a.03491.03491,0,0,0-.02.01"/><polyline class="cls-4" points="19.32 91.004 19.23 91.014 19.1 90.974 18.96 90.864 18.85 90.704 18.77 90.534 18.75 90.364 18.77 90.214 18.81 90.154 18.82 90.144"/><line class="cls-4" x1="17.88025" y1="89.28357" x2="17.93025" y2="89.25357"/><path class="cls-4" d="M14.79025,87.84357a.36181.36181,0,0,0,.17-.3"/><path class="cls-4" d="M14.79025,90.29357a.36181.36181,0,0,0,.17-.3"/><path class="cls-4" d="M14.79025,91.11357a.37938.37938,0,0,0,.17-.31"/><path class="cls-4" d="M14.79025,88.66357a.37938.37938,0,0,0,.17-.31"/><path class="cls-4" d="M14.79025,89.48357a.39387.39387,0,0,0,.17-.31"/><path class="cls-4" d="M31.83025,82.04357a2.56125,2.56125,0,0,0-.03-.39"/><path class="cls-4" d="M31.12025,82.45357a4.62867,4.62867,0,0,0-2.12-3.68"/><path class="cls-4" d="M59.41025,66.12357a4.61032,4.61032,0,0,0-2.13-3.67"/><path class="cls-4" d="M58.70025,66.53357a2.56125,2.56125,0,0,0-.03-.39"/><polyline class="cls-4" points="58.67 66.144 58.52 66.234 31.8 81.654"/><path class="cls-4" d="M30.23025,78.74357a3.17844,3.17844,0,0,0-.35-.26"/><polyline class="cls-4" points="30.23 78.744 56.97 63.314 57.1 63.244"/><path class="cls-4" d="M57.10025,63.24357a2.32707,2.32707,0,0,0-.35-.27"/><line class="cls-4" x1="56.75025" y1="62.97357" x2="29.88025" y2="78.48357"/><path class="cls-4" d="M30.88025,79.44357c-.1-.13-.2-.25-.31-.37"/><polyline class="cls-4" points="30.88 79.444 57.69 63.974 57.75 63.944"/><path class="cls-4" d="M57.75025,63.94357c-.1-.13-.2-.26-.31-.38"/><line class="cls-4" x1="57.44025" y1="63.56357" x2="30.57025" y2="79.07357"/><path class="cls-4" d="M31.39025,80.30357a3.75124,3.75124,0,0,0-.24-.44"/><line class="cls-4" x1="31.39025" y1="80.30357" x2="58.26025" y2="64.79357"/><path class="cls-4" d="M58.26025,64.79357a3.75124,3.75124,0,0,0-.24-.44"/><line class="cls-4" x1="58.02025" y1="64.35357" x2="31.15025" y2="79.86357"/><path class="cls-4" d="M31.72025,81.20357a3.87991,3.87991,0,0,0-.14-.45"/><line class="cls-4" x1="31.72025" y1="81.20357" x2="58.59025" y2="65.70357"/><path class="cls-4" d="M58.59025,65.70357a3.49988,3.49988,0,0,0-.14-.46"/><polyline class="cls-4" points="58.45 65.244 58.37 65.294 31.58 80.754"/><path class="cls-4" d="M15.57025,71.02357a1.30061,1.30061,0,0,0-1.48-.11,1.16641,1.16641,0,0,0-.37.3,1.3188,1.3188,0,0,0-.28,1.03"/><line class="cls-4" x1="29.00025" y1="78.77357" x2="15.57025" y2="71.02357"/><line class="cls-4" x1="31.12025" y1="82.45357" x2="31.12025" y2="104.09357"/><line class="cls-4" x1="30.56025" y1="82.12357" x2="30.56025" y2="103.76357"/><path class="cls-4" d="M30.56025,82.12357a3.33586,3.33586,0,0,0-1.44-2.6.93816.93816,0,0,0-.12-.09"/><line class="cls-4" x1="29.00025" y1="79.43357" x2="15.57025" y2="71.67357"/><path class="cls-4" d="M15.57025,71.67357a.96214.96214,0,0,0-1.56.9"/><line class="cls-4" x1="14.01025" y1="72.57357" x2="14.01025" y2="94.21357"/><polyline class="cls-4" points="13.44 72.244 13.44 78.174 13.44 78.974 13.44 79.634 13.44 93.894"/><polyline class="cls-4" points="58.26 64.794 58.2 64.794 58.14 64.764 58.07 64.704 58.02 64.634 57.98 64.544 57.97 64.464 57.99 64.394 58.02 64.354"/><path class="cls-4" d="M57.44025,63.56357a.31582.31582,0,0,0,.19.4c.02,0,.04.01.06.01"/><polyline class="cls-4" points="58.59 65.704 58.52 65.674 58.46 65.624 58.4 65.544 58.37 65.464 58.35 65.374 58.36 65.304 58.37 65.294"/><polyline class="cls-4" points="57 76.664 57 76.674 56.96 76.704 56.66 77.044 56.43 77.454 56.28 77.884 56.27 77.944 56.27 77.964 56.22 78.294 56.28 78.644 56.43 78.894 56.66 79.034 56.96 79.034 57.28 78.904 57.61 78.654 57.91 78.314 58.14 77.904 58.29 77.474 58.35 77.064"/><polyline class="cls-4" points="58.35 77.064 58.29 76.714 58.14 76.464 57.91 76.324 57.61 76.324 57.28 76.454 57.02 76.654"/><line class="cls-4" x1="59.41025" y1="76.45357" x2="59.41025" y2="66.12357"/><path class="cls-4" d="M58.23025,79.32357a4.71637,4.71637,0,0,0,1.18-2.87"/><line class="cls-4" x1="38.64025" y1="101.94357" x2="58.23025" y2="79.32357"/><line class="cls-4" x1="31.83025" y1="82.04357" x2="31.83025" y2="82.07357"/><line class="cls-4" x1="58.70025" y1="66.56357" x2="31.83025" y2="82.07357"/><line class="cls-4" x1="58.70025" y1="66.56357" x2="58.70025" y2="66.53357"/><polyline class="cls-4" points="31.83 82.484 58.52 67.074 58.7 66.974"/><line class="cls-4" x1="31.83025" y1="82.48357" x2="31.83025" y2="82.89357"/><line class="cls-4" x1="58.70025" y1="67.38357" x2="31.83025" y2="82.89357"/><line class="cls-4" x1="58.70025" y1="67.38357" x2="58.70025" y2="66.97357"/><polyline class="cls-4" points="31.83 83.294 58.52 67.894 58.7 67.794"/><line class="cls-4" x1="31.83025" y1="83.29357" x2="31.83025" y2="83.70357"/><line class="cls-4" x1="58.70025" y1="68.20357" x2="31.83025" y2="83.70357"/><line class="cls-4" x1="58.70025" y1="68.20357" x2="58.70025" y2="67.79357"/><polyline class="cls-4" points="31.83 84.114 58.52 68.714 58.7 68.604"/><line class="cls-4" x1="31.83025" y1="84.11357" x2="31.83025" y2="84.52357"/><line class="cls-4" x1="58.70025" y1="69.01357" x2="31.83025" y2="84.52357"/><line class="cls-4" x1="58.70025" y1="69.01357" x2="58.70025" y2="68.60357"/><polyline class="cls-4" points="31.83 84.934 58.52 69.524 58.7 69.424"/><line class="cls-4" x1="31.83025" y1="84.93357" x2="31.83025" y2="85.34357"/><line class="cls-4" x1="58.70025" y1="69.83357" x2="31.83025" y2="85.34357"/><line class="cls-4" x1="58.70025" y1="69.83357" x2="58.70025" y2="69.42357"/><polyline class="cls-4" points="31.83 85.744 58.52 70.344 58.7 70.244"/><line class="cls-4" x1="31.83025" y1="85.74357" x2="31.83025" y2="86.15357"/><line class="cls-4" x1="58.70025" y1="70.65357" x2="31.83025" y2="86.15357"/><line class="cls-4" x1="58.70025" y1="70.65357" x2="58.70025" y2="70.24357"/><polyline class="cls-4" points="31.83 86.564 58.52 71.164 58.7 71.054"/><line class="cls-4" x1="31.83025" y1="86.56357" x2="31.83025" y2="86.97357"/><line class="cls-4" x1="58.70025" y1="71.46357" x2="31.83025" y2="86.97357"/><line class="cls-4" x1="58.70025" y1="71.46357" x2="58.70025" y2="71.05357"/><polyline class="cls-4" points="31.83 87.384 58.52 71.974 58.7 71.874"/><line class="cls-4" x1="31.83025" y1="87.38357" x2="31.83025" y2="87.79357"/><line class="cls-4" x1="58.70025" y1="72.28357" x2="31.83025" y2="87.79357"/><line class="cls-4" x1="58.70025" y1="72.28357" x2="58.70025" y2="71.87357"/><polyline class="cls-4" points="31.83 88.194 58.52 72.794 58.7 72.694"/><line class="cls-4" x1="31.83025" y1="88.19357" x2="31.83025" y2="88.60357"/><line class="cls-4" x1="58.70025" y1="73.10357" x2="31.83025" y2="88.60357"/><line class="cls-4" x1="58.70025" y1="73.10357" x2="58.70025" y2="72.69357"/><polyline class="cls-4" points="31.83 89.014 58.52 73.614 58.7 73.504"/><line class="cls-4" x1="31.83025" y1="89.01357" x2="31.83025" y2="89.42357"/><line class="cls-4" x1="58.70025" y1="73.91357" x2="31.83025" y2="89.42357"/><line class="cls-4" x1="58.70025" y1="73.91357" x2="58.70025" y2="73.50357"/><polyline class="cls-4" points="31.83 89.834 58.5 74.444 58.7 74.324"/><line class="cls-4" x1="31.83025" y1="89.83357" x2="31.83025" y2="90.24357"/><line class="cls-4" x1="58.58025" y1="74.80357" x2="31.83025" y2="90.24357"/><path class="cls-4" d="M58.58025,74.80357a1.30578,1.30578,0,0,0,.12-.48"/><line class="cls-4" x1="31.83025" y1="90.64357" x2="56.33025" y2="76.50357"/><line class="cls-4" x1="31.83025" y1="90.64357" x2="31.83025" y2="91.05357"/><line class="cls-4" x1="55.93025" y1="77.14357" x2="31.83025" y2="91.05357"/><path class="cls-4" d="M56.33025,76.50357a5.275,5.275,0,0,0-.4.64"/><polyline class="cls-4" points="31.83 91.464 55.45 77.834 55.7 77.684"/><line class="cls-4" x1="31.83025" y1="91.46357" x2="31.83025" y2="91.87357"/><line class="cls-4" x1="55.57025" y1="78.17357" x2="31.83025" y2="91.87357"/><path class="cls-4" d="M55.70025,77.68357a3.91644,3.91644,0,0,0-.13.49"/><polyline class="cls-4" points="31.83 92.284 55.35 78.714 55.52 78.614"/><line class="cls-4" x1="31.83025" y1="92.28357" x2="31.83025" y2="92.69357"/><line class="cls-4" x1="55.54025" y1="79.00357" x2="31.83025" y2="92.69357"/><path class="cls-4" d="M55.52025,78.61357a1.70227,1.70227,0,0,0,.02.39"/><polyline class="cls-4" points="31.83 93.094 55.54 79.414 55.63 79.364"/><line class="cls-4" x1="31.83025" y1="93.09357" x2="31.83025" y2="93.50357"/><line class="cls-4" x1="55.82025" y1="79.66357" x2="31.83025" y2="93.50357"/><path class="cls-4" d="M55.63025,79.36357a1.17287,1.17287,0,0,0,.19.3"/><polyline class="cls-4" points="31.83 93.914 56.06 79.934 56.12 79.894"/><line class="cls-4" x1="56.27025" y1="80.21357" x2="31.83025" y2="94.32357"/><path class="cls-4" d="M56.27025,80.21357a.37883.37883,0,0,0-.15-.32"/><path class="cls-4" d="M55.95025,81.04357a1.27944,1.27944,0,0,0,.23-.37"/><polyline class="cls-4" points="31.83 94.734 55.83 80.874 56.18 80.674"/><line class="cls-4" x1="55.65025" y1="81.39357" x2="31.83025" y2="95.14357"/><line class="cls-4" x1="55.65025" y1="81.39357" x2="55.95025" y2="81.04357"/><polyline class="cls-4" points="31.83 95.544 54.41 82.514 54.94 82.204"/><line class="cls-4" x1="54.24025" y1="83.02357" x2="31.83025" y2="95.95357"/><line class="cls-4" x1="54.24025" y1="83.02357" x2="54.94025" y2="82.20357"/><line class="cls-4" x1="53.00025" y1="84.14357" x2="53.53025" y2="83.84357"/><line class="cls-4" x1="31.83025" y1="96.36357" x2="52.99025" y2="84.15357"/><line class="cls-4" x1="52.82025" y1="84.65357" x2="31.83025" y2="96.77357"/><line class="cls-4" x1="52.82025" y1="84.65357" x2="53.53025" y2="83.84357"/><polyline class="cls-4" points="31.83 97.184 51.58 85.784 52.11 85.474"/><line class="cls-4" x1="51.41025" y1="86.29357" x2="31.83025" y2="97.59357"/><line class="cls-4" x1="51.41025" y1="86.29357" x2="52.11025" y2="85.47357"/><polyline class="cls-4" points="31.83 97.994 50.17 87.414 50.7 87.104"/><line class="cls-4" x1="49.99025" y1="87.92357" x2="31.83025" y2="98.40357"/><line class="cls-4" x1="49.99025" y1="87.92357" x2="50.70025" y2="87.10357"/><line class="cls-4" x1="48.76025" y1="89.04357" x2="49.29025" y2="88.74357"/><line class="cls-4" x1="31.83025" y1="98.81357" x2="48.75025" y2="89.05357"/><line class="cls-4" x1="48.58025" y1="89.55357" x2="31.83025" y2="99.22357"/><line class="cls-4" x1="48.58025" y1="89.55357" x2="49.29025" y2="88.74357"/><line class="cls-4" x1="47.34025" y1="90.67357" x2="47.87025" y2="90.37357"/><line class="cls-4" x1="31.83025" y1="99.63357" x2="47.33025" y2="90.68357"/><line class="cls-4" x1="47.16025" y1="91.18357" x2="31.83025" y2="100.04357"/><line class="cls-4" x1="47.16025" y1="91.18357" x2="47.87025" y2="90.37357"/><polyline class="cls-4" points="31.83 100.444 45.93 92.314 46.46 92.004"/><line class="cls-4" x1="45.75025" y1="92.82357" x2="31.83025" y2="100.85357"/><line class="cls-4" x1="45.75025" y1="92.82357" x2="46.46025" y2="92.00357"/><line class="cls-4" x1="29.18025" y1="78.06357" x2="29.53025" y2="78.26357"/><polyline class="cls-4" points="56.4 62.754 56.22 62.864 29.53 78.264"/><line class="cls-4" x1="56.40025" y1="62.75357" x2="56.05025" y2="62.55357"/><line class="cls-4" x1="29.18025" y1="78.06357" x2="56.05025" y2="62.55357"/><line class="cls-4" x1="22.11025" y1="73.98357" x2="48.98025" y2="58.47357"/><line class="cls-4" x1="22.11025" y1="73.98357" x2="22.46025" y2="74.18357"/><polyline class="cls-4" points="49.33 58.674 49.15 58.784 22.46 74.184"/><line class="cls-4" x1="49.33025" y1="58.67357" x2="48.98025" y2="58.47357"/><line class="cls-4" x1="22.81025" y1="74.39357" x2="49.68025" y2="58.88357"/><line class="cls-4" x1="22.81025" y1="74.39357" x2="23.17025" y2="74.59357"/><polyline class="cls-4" points="50.04 59.084 49.86 59.184 23.17 74.594"/><line class="cls-4" x1="50.04025" y1="59.08357" x2="49.68025" y2="58.88357"/><line class="cls-4" x1="23.52025" y1="74.79357" x2="50.39025" y2="59.29357"/><line class="cls-4" x1="23.52025" y1="74.79357" x2="23.87025" y2="75.00357"/><polyline class="cls-4" points="50.74 59.494 50.57 59.594 23.87 75.004"/><line class="cls-4" x1="50.74025" y1="59.49357" x2="50.39025" y2="59.29357"/><line class="cls-4" x1="24.23025" y1="75.20357" x2="51.10025" y2="59.69357"/><line class="cls-4" x1="24.23025" y1="75.20357" x2="24.58025" y2="75.41357"/><polyline class="cls-4" points="51.45 59.904 51.27 60.004 24.58 75.414"/><line class="cls-4" x1="51.45025" y1="59.90357" x2="51.10025" y2="59.69357"/><line class="cls-4" x1="24.93025" y1="75.61357" x2="51.80025" y2="60.10357"/><line class="cls-4" x1="24.93025" y1="75.61357" x2="25.29025" y2="75.81357"/><polyline class="cls-4" points="52.16 60.314 51.98 60.414 25.29 75.814"/><line class="cls-4" x1="52.16025" y1="60.31357" x2="51.80025" y2="60.10357"/><line class="cls-4" x1="25.64025" y1="76.02357" x2="52.51025" y2="60.51357"/><line class="cls-4" x1="25.64025" y1="76.02357" x2="26.00025" y2="76.22357"/><polyline class="cls-4" points="52.87 60.714 52.69 60.824 26 76.224"/><line class="cls-4" x1="52.87025" y1="60.71357" x2="52.51025" y2="60.51357"/><line class="cls-4" x1="26.35025" y1="76.43357" x2="53.22025" y2="60.92357"/><line class="cls-4" x1="26.35025" y1="76.43357" x2="26.70025" y2="76.63357"/><polyline class="cls-4" points="53.57 61.124 53.4 61.224 26.7 76.634"/><line class="cls-4" x1="53.57025" y1="61.12357" x2="53.22025" y2="60.92357"/><line class="cls-4" x1="27.06025" y1="76.83357" x2="53.93025" y2="61.33357"/><line class="cls-4" x1="27.06025" y1="76.83357" x2="27.41025" y2="77.04357"/><polyline class="cls-4" points="54.28 61.534 54.1 61.634 27.41 77.044"/><line class="cls-4" x1="54.28025" y1="61.53357" x2="53.93025" y2="61.33357"/><line class="cls-4" x1="27.76025" y1="77.24357" x2="54.63025" y2="61.73357"/><line class="cls-4" x1="27.76025" y1="77.24357" x2="28.12025" y2="77.45357"/><polyline class="cls-4" points="54.99 61.944 54.81 62.044 28.12 77.454"/><line class="cls-4" x1="54.99025" y1="61.94357" x2="54.63025" y2="61.73357"/><line class="cls-4" x1="28.47025" y1="77.65357" x2="55.34025" y2="62.14357"/><line class="cls-4" x1="28.47025" y1="77.65357" x2="28.82025" y2="77.85357"/><polyline class="cls-4" points="55.69 62.354 55.52 62.454 28.82 77.854"/><line class="cls-4" x1="55.69025" y1="62.35357" x2="55.34025" y2="62.14357"/><line class="cls-4" x1="21.40025" y1="73.57357" x2="48.27025" y2="58.06357"/><line class="cls-4" x1="21.40025" y1="73.57357" x2="21.75025" y2="73.77357"/><polyline class="cls-4" points="48.62 58.274 48.45 58.374 21.75 73.774"/><line class="cls-4" x1="48.62025" y1="58.27357" x2="48.27025" y2="58.06357"/><line class="cls-4" x1="20.69025" y1="73.16357" x2="47.56025" y2="57.65357"/><line class="cls-4" x1="20.69025" y1="73.16357" x2="21.05025" y2="73.37357"/><polyline class="cls-4" points="47.92 57.864 47.74 57.964 21.05 73.374"/><line class="cls-4" x1="47.92025" y1="57.86357" x2="47.56025" y2="57.65357"/><line class="cls-4" x1="19.98025" y1="72.75357" x2="46.85025" y2="57.25357"/><line class="cls-4" x1="19.98025" y1="72.75357" x2="20.34025" y2="72.96357"/><polyline class="cls-4" points="47.21 57.454 47.03 57.554 20.34 72.964"/><line class="cls-4" x1="47.21025" y1="57.45357" x2="46.85025" y2="57.25357"/><line class="cls-4" x1="19.28025" y1="72.35357" x2="46.15025" y2="56.84357"/><line class="cls-4" x1="19.28025" y1="72.35357" x2="19.63025" y2="72.55357"/><polyline class="cls-4" points="46.5 57.044 46.32 57.144 19.63 72.554"/><line class="cls-4" x1="46.50025" y1="57.04357" x2="46.15025" y2="56.84357"/><line class="cls-4" x1="18.57025" y1="71.94357" x2="45.44025" y2="56.43357"/><line class="cls-4" x1="18.57025" y1="71.94357" x2="18.92025" y2="72.14357"/><polyline class="cls-4" points="45.79 56.634 45.61 56.734 18.92 72.144"/><line class="cls-4" x1="45.79025" y1="56.63357" x2="45.44025" y2="56.43357"/><line class="cls-4" x1="17.86025" y1="71.53357" x2="44.73025" y2="56.02357"/><line class="cls-4" x1="17.86025" y1="71.53357" x2="18.22025" y2="71.73357"/><polyline class="cls-4" points="45.09 56.234 44.91 56.334 18.22 71.734"/><line class="cls-4" x1="45.09025" y1="56.23357" x2="44.73025" y2="56.02357"/><line class="cls-4" x1="17.16025" y1="71.12357" x2="44.03025" y2="55.61357"/><line class="cls-4" x1="17.16025" y1="71.12357" x2="17.51025" y2="71.33357"/><polyline class="cls-4" points="44.38 55.824 44.2 55.924 17.51 71.334"/><line class="cls-4" x1="44.38025" y1="55.82357" x2="44.03025" y2="55.61357"/><line class="cls-4" x1="16.45025" y1="70.71357" x2="43.32025" y2="55.21357"/><line class="cls-4" x1="16.45025" y1="70.71357" x2="16.80025" y2="70.92357"/><polyline class="cls-4" points="43.67 55.414 43.5 55.514 16.8 70.924"/><line class="cls-4" x1="43.67025" y1="55.41357" x2="43.32025" y2="55.21357"/><line class="cls-4" x1="57.28025" y1="62.45357" x2="43.85025" y2="54.69357"/><path class="cls-4" d="M16.05025,72.65357a.06012.06012,0,0,0,.01.04,1.07539,1.07539,0,0,0,.43.75l.02.02"/><path class="cls-4" d="M29.48025,80.41357v.02a1.1997,1.1997,0,0,0,.45.76l.02.02"/><path class="cls-4" d="M56.75025,62.97357a.35967.35967,0,0,0,.22.34"/><path class="cls-4" d="M58.52025,66.23357a.34669.34669,0,0,0,.18.33"/><path class="cls-4" d="M56.05025,62.55357a.37938.37938,0,0,0,.17.31"/><path class="cls-4" d="M58.52025,67.07357a.38919.38919,0,0,0,.18.31"/><path class="cls-4" d="M55.34025,62.14357a.38919.38919,0,0,0,.18.31"/><path class="cls-4" d="M58.52025,67.89357a.40471.40471,0,0,0,.18.31"/><path class="cls-4" d="M54.63025,61.73357a.38919.38919,0,0,0,.18.31"/><path class="cls-4" d="M58.52025,68.71357a.37172.37172,0,0,0,.18.3"/><path class="cls-4" d="M53.93025,61.33357a.36181.36181,0,0,0,.17.3"/><path class="cls-4" d="M58.52025,69.52357a.38919.38919,0,0,0,.18.31"/><path class="cls-4" d="M53.22025,60.92357a.34933.34933,0,0,0,.18.3"/><path class="cls-4" d="M58.52025,70.34357a.40471.40471,0,0,0,.18.31"/><path class="cls-4" d="M52.51025,60.51357a.38919.38919,0,0,0,.18.31"/><path class="cls-4" d="M58.52025,71.16357a.37172.37172,0,0,0,.18.3"/><path class="cls-4" d="M51.80025,60.10357a.41693.41693,0,0,0,.18.31"/><path class="cls-4" d="M58.52025,71.97357a.38919.38919,0,0,0,.18.31"/><path class="cls-4" d="M51.10025,59.69357a.37938.37938,0,0,0,.17.31"/><path class="cls-4" d="M58.52025,72.79357a.40471.40471,0,0,0,.18.31"/><path class="cls-4" d="M50.39025,59.29357a.3868.3868,0,0,0,.18.3"/><path class="cls-4" d="M58.52025,73.61357a.37172.37172,0,0,0,.18.3"/><path class="cls-4" d="M49.68025,58.88357a.37172.37172,0,0,0,.18.3"/><path class="cls-4" d="M58.58025,74.80357l-.03-.03a.09984.09984,0,0,1-.04-.05.63729.63729,0,0,1-.02-.07c0-.03-.01-.06-.01-.09s.01-.06.01-.09a.03674.03674,0,0,1,.01-.03"/><path class="cls-4" d="M48.98025,58.47357a.39387.39387,0,0,0,.17.31"/><path class="cls-4" d="M55.93025,77.14357a.00979.00979,0,0,1-.01-.01.07808.07808,0,0,1-.04-.04.07638.07638,0,0,1-.02-.05.27686.27686,0,0,1-.01-.09.5274.5274,0,0,1,.03-.12.16235.16235,0,0,1,.05-.09"/><path class="cls-4" d="M48.27025,58.06357a.36544.36544,0,0,0,.18.31"/><path class="cls-4" d="M55.57025,78.17357l-.01-.01a.1205.1205,0,0,1-.05-.05.16118.16118,0,0,1-.04-.07c-.02-.02-.02-.05-.03-.08v-.08a.07494.07494,0,0,1,.01-.05"/><path class="cls-4" d="M47.56025,57.65357a.38919.38919,0,0,0,.18.31"/><path class="cls-4" d="M55.54025,79.00357a.2092.2092,0,0,1-.06-.04l-.06-.06c-.01-.02-.03-.05-.04-.07-.01-.03-.02-.05-.03-.08v-.04"/><path class="cls-4" d="M46.85025,57.25357a.41578.41578,0,0,0,.18.3"/><path class="cls-4" d="M55.82025,79.66357a.2092.2092,0,0,1-.06-.04.2092.2092,0,0,1-.06-.04c-.02-.02-.04-.03-.06-.05l-.06-.06a.2092.2092,0,0,1-.04-.06"/><path class="cls-4" d="M46.15025,56.84357a.36181.36181,0,0,0,.17.3"/><path class="cls-4" d="M56.27025,80.21357c-.02-.01-.04-.03-.06-.04a.26513.26513,0,0,0-.05-.06.42335.42335,0,0,0-.05-.07c-.01-.02-.02-.05-.03-.07a.07581.07581,0,0,1-.02-.04"/><path class="cls-4" d="M45.44025,56.43357a.40427.40427,0,0,0,.17.3l.01.01"/><polyline class="cls-4" points="55.78 80.944 55.83 80.874 55.85 80.844"/><path class="cls-4" d="M55.78025,80.94357c-.16.2-.22.4-.13.45"/><path class="cls-4" d="M44.73025,56.02357a.38919.38919,0,0,0,.18.31"/><path class="cls-4" d="M54.41025,82.51357c-.19.23-.27.45-.17.51"/><path class="cls-4" d="M44.03025,55.61357a.37938.37938,0,0,0,.17.31"/><path class="cls-4" d="M53.00025,84.14357l-.01.01c-.19.23-.27.45-.17.5"/><path class="cls-4" d="M43.85025,54.69357a1.4967,1.4967,0,0,0-1.5-.14"/><path class="cls-4" d="M16.10025,70.52357a2.5537,2.5537,0,0,0-.35-.14"/><polyline class="cls-4" points="16.1 70.524 42.77 55.124 42.97 55.014"/><path class="cls-4" d="M42.97025,55.01357a2.48145,2.48145,0,0,0-.35-.13"/><line class="cls-4" x1="42.62025" y1="54.88357" x2="15.75025" y2="70.38357"/><path class="cls-4" d="M15.41025,70.33357a1.08588,1.08588,0,0,0-.31.01"/><polyline class="cls-4" points="15.41 70.334 42.05 54.954 42.28 54.824"/><path class="cls-4" d="M42.28025,54.82357a1.63308,1.63308,0,0,0-.31.01"/><polyline class="cls-4" points="41.97 54.834 41.48 55.114 15.1 70.344"/><polyline class="cls-4" points="14.83 70.434 14.79 70.454 14.77 70.464"/><polyline class="cls-4" points="14.83 70.434 23.45 65.464 23.73 65.304 24.14 65.064 41.55 55.024"/><path class="cls-4" d="M41.70025,54.93357a.59683.59683,0,0,0-.15.09.54956.54956,0,0,0-.09.07"/><line class="cls-4" x1="41.46025" y1="55.09357" x2="14.59025" y2="70.60357"/><path class="cls-4" d="M43.32025,55.21357a.36211.36211,0,0,0,.18.3"/><path class="cls-4" d="M51.58025,85.78357c-.19.22-.27.45-.17.51"/><path class="cls-4" d="M42.62025,54.88357a.36857.36857,0,0,0,.15.24"/><path class="cls-4" d="M50.17025,87.41357c-.19.22-.27.45-.18.51"/><polyline class="cls-4" points="42.05 54.954 42.02 54.924 41.97 54.834"/><path class="cls-4" d="M48.76025,89.04357l-.01.01c-.19.23-.27.45-.17.5"/><path class="cls-4" d="M47.34025,90.67357l-.01.01c-.18.23-.26.45-.17.5"/><path class="cls-4" d="M41.46025,55.09357c0,.01.01.01.02.02a.266.266,0,0,0,.11.1"/><path class="cls-4" d="M45.93025,92.31357c-.2.22-.28.45-.18.51"/><polyline class="cls-4" points="57.44 77.074 57.4 76.834 57.27 76.684 57.21 76.674 57.07 76.644 57.02 76.654 57 76.664"/><polyline class="cls-4" points="56.26 77.944 56.27 77.964 56.29 78.004 56.39 78.114 56.42 78.154 56.61 78.194 56.84 78.114 57.07 77.934 57.27 77.664 57.4 77.364 57.44 77.074"/><polyline class="cls-4" points="57.2 76.654 57.21 76.674 57.27 76.764 57.32 77.004 57.27 77.294 57.14 77.594 56.95 77.864 56.72 78.044 56.49 78.124 56.39 78.114 56.36 78.114"/><polyline class="cls-4" points="22.26 94.654 22.43 94.484 22.53 94.204 22.53 93.834 22.43 93.424 22.23 93.014 21.97 92.654 21.66 92.384 21.34 92.234 21.04 92.214 20.89 92.274"/><path class="cls-4" d="M22.19025,94.22357a2.10492,2.10492,0,0,0-.48-1.25"/><line class="cls-4" x1="21.87025" y1="92.88357" x2="21.71025" y2="92.97357"/><path class="cls-4" d="M21.87025,92.88357a1.2519,1.2519,0,0,0-.98-.56"/><line class="cls-4" x1="20.74025" y1="92.41357" x2="20.89025" y2="92.32357"/><path class="cls-4" d="M20.74025,92.41357a.60487.60487,0,0,0-.49.69"/><polyline class="cls-4" points="21.56 93.804 21.57 93.864 21.55 94.014 21.47 94.094 21.36 94.124 21.22 94.074 21.09 93.964 20.97 93.814 20.89 93.634 20.87 93.464"/><polyline class="cls-4" points="20.87 93.464 20.89 93.324 20.97 93.234 21.09 93.214 21.22 93.254 21.28 93.304 21.36 93.364 21.47 93.524 21.55 93.694 21.56 93.794"/><line class="cls-4" x1="20.81025" y1="92.61357" x2="20.74025" y2="92.41357"/><path class="cls-4" d="M21.63025,93.08357a1.07617,1.07617,0,0,0-.82-.47"/><line class="cls-4" x1="21.63025" y1="93.08357" x2="21.71025" y2="92.97357"/><path class="cls-4" d="M20.41025,93.19357a1.81551,1.81551,0,0,0,.4,1.05"/><line class="cls-4" x1="20.41025" y1="93.19357" x2="20.25025" y2="93.10357"/><polyline class="cls-4" points="20.59 92.444 20.59 92.434 20.72 92.244 20.84 92.174 20.95 92.114 21.25 92.104 21.57 92.234 21.9 92.484 22.2 92.834 22.43 93.234 22.58 93.664 22.64 94.074"/><path class="cls-4" d="M21.95025,92.04357c-.01-.01-.02-.01-.03-.02a.72181.72181,0,0,0-.2-.09.77356.77356,0,0,0-.54.02"/><line class="cls-4" x1="20.89025" y1="92.32357" x2="20.81025" y2="92.61357"/><polyline class="cls-4" points="21.3 93.304 21.28 93.304 21.27 93.304 21.2 93.314 21.15 93.374 21.13 93.464 21.15 93.564 21.2 93.674 21.27 93.774 21.35 93.844"/><polyline class="cls-4" points="20.83 92.154 20.94 91.994 21.2 91.854 21.51 91.854 21.72 91.934 21.86 91.984 21.92 92.024 22.21 92.254 22.53 92.624 22.78 93.054 22.94 93.514 22.99 93.944"/><polyline class="cls-4" points="20.52 92.454 20.57 92.114 20.73 91.804 20.76 91.774 20.77 91.774 20.98 91.614 21.3 91.564 21.67 91.644 22.05 91.864 22.42 92.204 22.74 92.634 22.99 93.104 23.15 93.604 23.2 94.074"/><polyline class="cls-4" points="21.23 91.464 21.3 91.434 21.62 91.374 21.99 91.464 22.37 91.684 22.74 92.024 23.06 92.444 23.31 92.924 23.47 93.414 23.52 93.884"/><line class="cls-4" x1="23.59025" y1="95.56357" x2="23.59025" y2="92.29357"/><line class="cls-4" x1="23.87025" y1="92.13357" x2="23.59025" y2="92.29357"/><line class="cls-4" x1="23.59025" y1="92.29357" x2="20.76025" y2="90.66357"/><line class="cls-4" x1="20.76025" y1="90.66357" x2="20.76025" y2="91.76357"/><line class="cls-4" x1="20.76025" y1="90.66357" x2="21.04025" y2="90.50357"/><path class="cls-5" d="M42.12525,54.41415S15.62444,70.022,14.26325,70.60357a1.65506,1.65506,0,0,0-1.048,1.75c-.02.41,0,21.53,0,21.53"/></g></svg>