<?xml version="1.0" encoding="utf-8"?>
<!-- Generator: Adobe Illustrator 26.0.3, SVG Export Plug-In . SVG Version: 6.00 Build 0)  -->
<svg version="1.1" id="Layer_1" xmlns="http://www.w3.org/2000/svg" xmlns:xlink="http://www.w3.org/1999/xlink" x="0px" y="0px"
	 viewBox="0 0 384.44022 81.06731" style="enable-background:new 0 0 384.44022 81.06731;" xml:space="preserve">
<style type="text/css">
	.st0{fill:#1F7FF0;}
</style>
<g id="Group-3">
	<g id="Group-2">
		<polygon id="Path-2" class="st0" points="225.34,35.967 225.34,0.467 271.14001,0.467 271.14001,16.967 241.64,16.967 
			241.64,35.967 		"/>
		<polygon id="Path-4" class="st0" points="281.94,35.967 281.94,0.567 327.73999,0.567 327.73999,16.967 298.44,16.967 
			298.44,35.967 		"/>
		<polygon id="Path-5" class="st0" points="281.94,45.567 298.44,45.567 298.44,64.567 327.64001,64.567 327.64001,80.967 
			281.94,80.967 		"/>
		<polygon id="Path-6" class="st0" points="338.73999,81.067 338.73999,45.567 355.14001,45.567 355.14001,64.567 384.44,64.567 
			384.44,80.967 		"/>
		<polygon id="Path-3" class="st0" points="225.34,64.567 254.64,64.567 254.64,45.467 271.04001,45.467 271.04001,80.967 
			225.34,80.967 		"/>
	</g>
	<g id="Group-2-Copy">
		<rect id="Rectangle-4" y="0.3" class="st0" width="16.8" height="80.2"/>
		<rect id="Rectangle-4-Copy-2" x="53.60001" y="0.3" class="st0" width="16.8" height="80.2"/>
		<rect id="Rectangle-4-Copy" x="26.8" y="0.3" class="st0" width="16.8" height="55.1"/>
		<rect id="Rectangle-4-Copy-3" x="80.90001" y="26.8" class="st0" width="16.8" height="53.7"/>
		<rect id="Rectangle-4-Copy-4" x="108.2" y="26.8" class="st0" width="16.8" height="53.7"/>
		<rect id="Rectangle-4-Copy-5" x="108.2" y="0" class="st0" width="43.5" height="15"/>
		<rect id="Rectangle-4-Copy-6" x="80.90001" y="0" class="st0" width="16.8" height="15"/>
	</g>
	<polygon id="Line" class="st0" points="186.94,0.067 189.53999,0.067 189.53999,80.567 186.94,80.567 	"/>
</g>
</svg>
