<?xml version="1.0" encoding="utf-8"?>
<!-- Generator: Adobe Illustrator 26.0.3, SVG Export Plug-In . SVG Version: 6.00 Build 0)  -->
<svg version="1.1" id="logo" xmlns="http://www.w3.org/2000/svg" xmlns:xlink="http://www.w3.org/1999/xlink" x="0px" y="0px"
	 viewBox="0 0 635.9 89.1" style="enable-background:new 0 0 635.9 89.1;" xml:space="preserve">
<style type="text/css">
	.st0{fill:#1F7FF0;}
</style>
<g id="Group-3">
	<g id="Group-2">
		<polygon id="Path-2" class="st0" points="225.3,36 225.3,0.5 271.1,0.5 271.1,17 241.6,17 241.6,36 		"/>
		<polygon id="Path-4" class="st0" points="281.9,36 281.9,0.6 327.7,0.6 327.7,17 298.4,17 298.4,36 		"/>
		<polygon id="Path-5" class="st0" points="281.9,45.6 298.4,45.6 298.4,64.6 327.6,64.6 327.6,81 281.9,81 		"/>
		<polygon id="Path-6" class="st0" points="338.7,81.1 338.7,45.6 355.1,45.6 355.1,64.6 384.4,64.6 384.4,81 		"/>
		<polygon id="Path-3" class="st0" points="225.3,64.6 254.6,64.6 254.6,45.5 271,45.5 271,81 225.3,81 		"/>
		<g id="Group">
			<path id="senseable" class="st0" d="M433.9,16.7l-5.3,0.7c-0.6-2.4-2.8-3.9-6-3.9c-2.5,0-4.7,0.9-4.7,2.6c0,1.6,1.5,2.4,3.9,3
				l3,0.6c5.1,1.1,9.4,2.5,9.4,7.4c0,5.3-5,8.2-10.9,8.2c-6.6,0-10.8-3.7-11.3-8.2l5.5-0.8c0.4,2.9,3,5,6,4.8c3.1,0,5.1-1.1,5.1-3.2
				s-2.2-2.7-4.8-3.3l-3.3-0.7c-4.4-0.9-7.9-2.7-7.9-7.4c0-4.5,4.7-7.2,10.4-7.2C428.3,9.2,432.9,11.8,433.9,16.7z M449.7,35.3
				c-8.3,0-12.5-5.8-12.5-13c0-7.7,4.9-13,12.3-13c7.9,0,12.6,6.1,12.1,14.7h-18.7c0.1,4.1,2.9,6.8,6.7,6.8c3.6,0,5.3-1.7,6.2-3.9
				l5.4,0.7C460.1,31.3,456.5,35.3,449.7,35.3z M449.6,13.6c-3.3,0-6.5,1.9-6.7,6.2h13c0-3.4-2.7-6.2-6.2-6.2
				C449.7,13.6,449.7,13.6,449.6,13.6L449.6,13.6z M471.8,9.8v3.1c1.4-2.2,4.1-3.6,7.7-3.6c3.2,0,5.6,1.1,7,3.1
				c1.1,1.6,1.6,3.7,1.6,6.9v15.4h-5.7v-14c0-2.6-0.3-4.5-1.4-5.6c-0.9-0.8-2.2-1.3-3.4-1.2c-4.3,0-5.9,3.3-5.9,7.8v12.9H466V9.7
				h5.8V9.8z M514.1,16.7l-5.3,0.7c-0.6-2.4-2.8-3.9-6-3.9c-2.5,0-4.7,0.9-4.7,2.6c0,1.6,1.5,2.4,3.9,3l3,0.6
				c5.1,1.1,9.4,2.5,9.4,7.4c0,5.3-5,8.2-10.9,8.2c-6.6,0-10.8-3.7-11.3-8.2l5.5-0.8c0.4,2.9,3,5,6,4.8c3.1,0,5.1-1.1,5.1-3.2
				s-2.2-2.7-4.8-3.3l-3.3-0.7c-4.4-0.9-7.9-2.7-7.9-7.4c0-4.5,4.7-7.2,10.4-7.2C508.5,9.2,513.2,11.8,514.1,16.7z M530,35.3
				c-8.3,0-12.5-5.8-12.5-13c0-7.7,4.9-13,12.3-13c7.9,0,12.6,6.1,12.1,14.7h-18.7c0.1,4.1,2.9,6.8,6.7,6.8c3.6,0,5.3-1.7,6.2-3.9
				l5.4,0.7C540.3,31.3,536.7,35.3,530,35.3z M529.9,13.6c-3.3,0-6.5,1.9-6.7,6.2h13c0-3.4-2.7-6.2-6.2-6.2
				C530,13.6,530,13.6,529.9,13.6L529.9,13.6z M551.1,17.5l-5.2-0.2c0.4-4.9,4.4-8.2,10.9-8.2c7.2,0,10.3,2.6,10.3,9.6
				c0,1.6-0.1,5.8-0.1,7.2c0,2.9,0.2,5.9,0.5,8.8h-5.3l-0.2-3c-1.6,2.3-4,3.6-8.1,3.6c-5.8,0-9-3.9-9-8.1c-0.1-2.1,1-4.2,2.7-5.4
				c2.2-1.5,5.3-2.1,9.1-2.6l4.7-0.5v-0.9c0-3.4-2-4.4-5-4.4C553.3,13.4,551.3,14.8,551.1,17.5L551.1,17.5z M561.7,24.3v-1.5
				l-4.7,0.5c-4.3,0.5-6.2,1.6-6.2,3.9c0,2.1,1.7,3.7,4.4,3.7C558.5,30.9,561.7,29,561.7,24.3z M572.9,34.7V0.9h5.7v11.8
				c1.7-2.3,4.4-3.7,7.3-3.5c6.2,0,10.7,4.9,10.7,13.1c0,8-4.7,13-11.1,13c-2.7,0.1-5.3-1.1-7-3.2l-0.1,2.5L572.9,34.7L572.9,34.7z
				 M584.7,13.8c-3.7,0-6.4,3-6.4,8.6c0,5.5,2.6,8.4,6.4,8.4c3.9,0,6.1-3.4,6.1-8.5S588.7,13.8,584.7,13.8z M606.8,0.9v33.8h-5.7
				V0.9C601.1,0.9,606.8,0.9,606.8,0.9z M623.9,35.3c-8.3,0-12.5-5.8-12.5-13c0-7.7,4.9-13,12.3-13c7.9,0,12.6,6.1,12.1,14.7h-18.7
				c0.1,4.1,2.9,6.8,6.7,6.8c3.6,0,5.3-1.7,6.2-3.9l5.4,0.7C634.3,31.3,630.7,35.3,623.9,35.3z M623.8,13.6c-3.3,0-6.5,1.9-6.7,6.2
				h13c0-3.4-2.7-6.2-6.2-6.2C623.9,13.6,623.9,13.6,623.8,13.6z"/>
			<path id="city-lab." class="st0" d="M424.4,54.9c5.7,0,10.1,3.3,11.2,8.6l-5.4,0.8c-0.4-2.9-3-5-5.9-4.8c-3.7,0-6.4,2.8-6.4,8.4
				c0,5.7,2.8,8.6,6.4,8.6c3,0.2,5.6-1.9,6.1-4.8l5.5,0.7c-1.3,5.5-6.1,8.7-11.7,8.7c-7.7,0-12.1-5.4-12.1-13S416.6,54.9,424.4,54.9
				z M440.1,55.4h5.7v24.9h-5.7V55.4z M440.1,46.5h5.7v5.7h-5.7V46.5z M452.8,55.4v-7.2h5.7v7.2h5.1v4.3h-5.1v12.9
				c0,2.6,0.6,3.2,3,3.2h2v4.5h-4.1c-5.4,0-6.6-1.5-6.6-6.7V59.7H449v-4.3L452.8,55.4z M469.5,89.1H467v-4.7h2.1
				c2.4,0,3.5-0.3,4.6-3.6l0.3-0.6l-9.2-24.8h6.2l5.8,17.8l5.8-17.8h5.8l-9,24.9C476.9,86.9,475.2,89.1,469.5,89.1L469.5,89.1z
				 M507.9,46.5v33.8h-5.7V46.5L507.9,46.5z M518.8,63.1l-5.2-0.2c0.4-4.9,4.4-8.2,10.9-8.2c7.2,0,10.3,2.6,10.3,9.6
				c0,1.6-0.1,5.8-0.1,7.2c0,2.9,0.2,5.9,0.5,8.8h-5.3l-0.2-3c-1.6,2.3-4,3.6-8.1,3.6c-5.8,0-9-3.9-9-8.1c-0.1-2.1,1-4.2,2.7-5.4
				c2.2-1.5,5.3-2.1,9.1-2.6l4.7-0.5v-0.9c0-3.4-2-4.4-5-4.4C521,59,519.1,60.5,518.8,63.1C518.8,63.1,518.8,63.1,518.8,63.1z
				 M529.5,70v-1.5l-4.7,0.5c-4.3,0.5-6.2,1.6-6.2,3.9c0,2.1,1.7,3.7,4.4,3.7C526.2,76.5,529.5,74.6,529.5,70L529.5,70z M540.7,80.3
				V46.5h5.7v11.8c1.7-2.3,4.4-3.7,7.3-3.5c6.2,0,10.7,4.9,10.7,13.1c0,8-4.7,13-11.1,13c-2.7,0.1-5.3-1.1-7-3.2l-0.1,2.5h-5.5
				L540.7,80.3z M552.4,59.4c-3.7,0-6.4,3-6.4,8.6c0,5.5,2.6,8.4,6.4,8.4c3.9,0,6.1-3.4,6.1-8.5S556.4,59.4,552.4,59.4
				C552.4,59.4,552.4,59.4,552.4,59.4z M573.7,80.3h-6.4v-6.4h6.4V80.3z"/>
		</g>
	</g>
	<g id="Group-2-Copy">
		<rect id="Rectangle-4" y="0.3" class="st0" width="16.8" height="80.2"/>
		<rect id="Rectangle-4-Copy-2" x="53.6" y="0.3" class="st0" width="16.8" height="80.2"/>
		<rect id="Rectangle-4-Copy" x="26.8" y="0.3" class="st0" width="16.8" height="55.1"/>
		<rect id="Rectangle-4-Copy-3" x="80.9" y="26.8" class="st0" width="16.8" height="53.7"/>
		<rect id="Rectangle-4-Copy-4" x="108.2" y="26.8" class="st0" width="16.8" height="53.7"/>
		<rect id="Rectangle-4-Copy-5" x="108.2" y="0" class="st0" width="43.5" height="15"/>
		<rect id="Rectangle-4-Copy-6" x="80.9" y="0" class="st0" width="16.8" height="15"/>
	</g>
	<polygon id="Line" class="st0" points="186.9,0.1 189.5,0.1 189.5,80.6 186.9,80.6 	"/>
</g>
</svg>
