<?xml version="1.0" encoding="utf-8"?>
<!-- Generator: Adobe Illustrator 26.0.3, SVG Export Plug-In . SVG Version: 6.00 Build 0)  -->
<svg version="1.1"
	 id="svg2" xmlns:cc="http://creativecommons.org/ns#" xmlns:dc="http://purl.org/dc/elements/1.1/" xmlns:inkscape="http://www.inkscape.org/namespaces/inkscape" xmlns:rdf="http://www.w3.org/1999/02/22-rdf-syntax-ns#" xmlns:sodipodi="http://sodipodi.sourceforge.net/DTD/sodipodi-0.dtd" xmlns:svg="http://www.w3.org/2000/svg"
	 xmlns="http://www.w3.org/2000/svg" xmlns:xlink="http://www.w3.org/1999/xlink" x="0px" y="0px" viewBox="0 0 412.5 420.06787"
	 style="enable-background:new 0 0 412.5 420.06787;" xml:space="preserve">
<style type="text/css">
	.st0{fill:#1F7FF0;}
</style>
<g>
	<path id="Tracé_24" class="st0" d="M138.60001,91.96786c-13.2-11.10001-28.5-19.5-45-24.7c-0.4-0.8,0.2-1.2,0.5-1.60001
		c5.7-7,12-13.60001,18.7-19.7c22.8-20.7,50.7-35.1,80.90001-41.7c7.2-1.6,14.60001-2.7,21.89999-3.4
		c8.60001-0.9,17.3-1.1,25.89999-0.6c20.89999,1,41.5,5.5,60.89999,13.4c17,6.9,32.79999,16.5,46.89999,28.3
		c19.60001,16.39999,35.39999,36.80001,46.29999,60c6.29999,13.3,10.89999,27.39999,13.60001,41.89999
		c1.20001,6.2,2,12.39999,2.60001,18.7c0.79999,9.3,0.89999,18.7,0.29999,28.09999c-1.39999,22.10001-7,43.70001-16.29999,63.70001
		c-7.70001,16.60001-18,31.79999-30.5,45.20004c-19.39999,20.89999-43.39999,36.79999-70.10001,46.60001
		c-2.60001,1-5.20001,1.79999-7.89999,2.70001c-1.79999,0.60001-2,0.39999-1.89999-1.29999
		c0.39999-6.29999,1.10001-12.5,2.20001-18.70001c1.89999-10.70001,4.5-21.39999,7.60001-31.79999
		c0.39999-1.39999,1.29999-2.60001,2.60001-3.29999c16.5-10.39999,30.39999-24.60001,40.39999-41.40001
		c8.60001-13.89999,14.70001-29.10001,18.20001-45.10001c1.39999-6.5,2.39999-13.20001,2.89999-19.89999
		c0.39999-4.20001,0.5-8.39999,0.39999-12.7c-0.60001-20.7-6.10001-40.90001-16.29999-58.99998
		c-24.39999-43.5-72-68.8-121.7-64.59999c-11.8,1-23.39999,3.7-34.40001,8.2c-14.7,5.9-28.2,14.30001-39.89999,24.9
		c-2.39999,2.2-4.8,4.5-7.2,6.8C139.8,91.26786,139.2,91.66787,138.60001,91.96786"/>
	<path id="Tracé_25" class="st0" d="M51.3,181.56786c0.1-8.8,0.5-16.7,1.3-24.39999c1.2-12.10001,3.9-24,8.3-35.39999
		c0.1-0.2,0.1-0.39999,0.2-0.60001c0.7-1.7,0.8-1.8,2.5-1.5c14,2.10001,27.3,7.7,38.5,16.49999c2.1,1.7,4,3.5,6.1,5.3
		c1.1,0.8,1.5,2.3,1,3.5c-1.4,4.3-2.4,8.7-3.1,13.2c-0.3,2.3-0.7,4.7-0.9,7c-0.3,3.89999-0.6,7.8-0.5,11.70001
		c0.1,5.10001,0.3,10.29999,0.8,15.39999c0.6,6.10001,1.7,12.20001,3.2,18.20001c10.9,43.39999,43.8,77.89999,86.7,90.89999
		c7.8,2.39999,15.8,4,23.8,4.79999c3.60001,0.39999,7.2,0.5,10.8,0.60001c0.7,0,1.39999,0,2.2,0.10001
		c0.5,0,0.8,0.39999,0.8,0.89999c0,0.10001,0,0.10001,0,0.20001c-0.10001,0.39999-0.2,0.79999-0.3,1.20001
		c-2.10001,8.60001-3.8,17.29999-5,26.10001c-0.60001,4.20001-1,8.39999-1.5,12.60001c-0.2,1.70001-0.39999,3.5-0.60001,5.20001
		c-0.10001,1.10001-0.39999,1.39999-1.60001,1.29999c-4-0.10001-8-0.10001-12.10001-0.29999c-3.2-0.20001-6.3-0.60001-9.5-1
		c-8.39999-0.89999-16.7-2.60001-24.8-5c-17-4.89999-33.2-12.5-48-22.29999c-15.4-10.20001-29.2-22.70001-40.7-37.20001
		c-13.9-17.39999-24.2-37.3-30.5-58.60002c-2.5-8.39999-4.3-17-5.5-25.60001C51.9,196.96785,51.4,189.26787,51.3,181.56786"/>
	<path id="Tracé_26" class="st0" d="M0.3,110.26786c-0.5-0.5-0.3-1.2-0.3-1.8c0-6.5,0-13,0-19.5c0-0.3,0-0.60001,0-0.89999
		c-0.1-0.8,0.4-1.60001,1.3-1.89999c3.4-1.5,6.8-2.89999,10.4-4c7.1-2.2,14.4-3.7,21.7-4.5c8.1-0.89999,16.3-1,24.4-0.3
		c12,1,23.8,3.7,35.1,7.8c11.3,4.2,22,9.89999,31.8,17c5,3.5,9.60001,7.39999,14.3,11.3c5.60001,4.7,11.7,8.8,18.2,12.2
		c4.39999,2.2,9.2,3.69999,14.10001,4.3c5.10001,0.60001,10.3,0.39999,15.39999-0.5c5.8-0.89999,11.60001-1.49999,17.5-2.1
		c3.5-0.39999,7-0.7,10.39999-1c3.10001-0.39999,6.2,0.10001,9.10001,1.3c3.39999,1.39999,5.8,4.6,6.2,8.19999
		c0.5,3.3,0.8,6.5,1.2,9.8c0.5,4.2,0.89999,8.39999,1.39999,12.60001c0.10001,2.10001,1.60001,3.89999,3.7,4.5
		c2.60001,0.8,5.10001,1.60001,7.60001,2.5c1.3,0.39999,2.5,0.8,3.8,1.39999c3.5,1.60001,5.60001,5.2,5.10001,9.10001
		c-0.3,3.10001-0.60001,6.10001-0.89999,9.20001c-0.10001,0.5,0,1,0,1.5c0.7,0.20001,1-0.29999,1.3-0.60001
		c1.60001-1.60001,3.60001-2.79999,5.70001-3.5c4.60001-1.10001,9.29999,1.60001,10.60001,6.20001
		c0.29999,1.29999,0.5,2.60001,0.5,4c0,1.89999,0,3.70001,0.20001,5.60001c0.20001,3.20001,2.10001,6,4.89999,7.39999
		c3.39999,1.70001,7.10001,2.79999,10.89999,3c3.29999,0.29999,6.5,1.10001,9.5,2.5c4.60001,2,7.5,6.5,7.5,11.5
		c0.10001,3.20001-0.60001,6.39999-2,9.29999c-5,11-9.39999,22.20001-13.60001,33.50003
		c-5.70001,15.5-10.39999,31.29999-14.10001,47.29999c-1.79999,7.70001-3.60001,15.39999-4.79999,23.29999
		c-0.89999,5.89999-1.70001,11.79999-2.20001,17.79999c-0.89999,8.70001-1.20001,17.5-1,26.20001
		c0.20001,13,2.29999,25.89999,6.20001,38.29999c0.20001,0.5,0.29999,1,0.39999,1.29999
		c-0.20001,0.5-0.60001,0.70001-1.10001,0.60001c-6.60001,0-13.20001,0-19.8,0c-1.60001,0-1.7-0.10001-2.2-1.60001
		c-1.60001-5.29999-2.89999-10.70001-3.89999-16.20001c-2-11.79999-2.8-23.79999-2.39999-35.70001
		c0.2-6.89999,0.8-13.79999,1.60001-20.60001c1.10001-9,2.60001-17.89999,4.39999-26.79999
		c2.10001-10.20001,4.7-20.29999,7.70001-30.20001c4.60001-15.39999,10.10001-30.5,16.5-45.20003c1-2.29999,2-4.5,3-6.79999
		c0.70001-1.5,1-3.20001,0.89999-4.79999c0.20001-2.20001-1.39999-4.10001-3.5-4.39999c-2.29999-0.5-4.60001-0.89999-7-1.29999
		c-3-0.29999-5.70001-1.89999-7.60001-4.29999c-1.89999-2.79999-2.7-6.29999-2.10001-9.70001
		c0.20001-1.60001,0.39999-3.29999,0.5-4.89999c0.20001-3.10001-1.5-5.29999-5.3-3.89999c-1.10001,0.39999-2.3,1-3.39999,1.5
		c-1.3,0.70001-2.7,1-4.10001,1.10001c-2.5,0.39999-4.8-1.29999-5.10001-3.70001c0-0.10001,0-0.29999,0-0.39999
		c-0.3-1.70001-0.39999-3.5-0.60001-5.20001c-0.2-2-0.39999-4.10001-0.7-6.10001c0-2.39999-1.89999-4.29999-4.3-4.5
		c-3-0.60001-6-1.29999-9-1.89999c-3.8-0.60001-6.89999-3.10001-8.3-6.60001c-0.39999-0.89999-0.60001-1.79999-0.7-2.7
		c-0.39999-5.3-0.8-10.7-1.3-16c-0.2-1.8-0.3-3.7-0.60001-5.5c-0.2-2.8-2.60001-5-5.39999-4.89999
		c-1.10001,0-2.3,0.10001-3.39999,0.39999c-6.3,1.5-12.7,2.39999-19.10001,3.39999c-1.10001,0.2-2.2,0.39999-3.3,0.60001
		c-10.7,1.60001-21.5,0.10001-31.39999-4.39999c-8.7-4-16.89999-9-24.4-15c-3.2-2.5-6.2-5.10001-9.3-7.6
		c-8.4-6.8-17.7-12.5-27.6-16.89999c-7.1-3.10001-14.6-5.3-22.2-6.3c-8.8-1.3-17.7-1.7-26.5-0.89999
		c-13.1,0.89999-25.9,3.7-38.2,8.2C1.7,110.06786,1.1,110.56786,0.3,110.26786"/>
</g>
</svg>
