<?xml version="1.0" encoding="utf-8"?>
<!-- Generator: Adobe Illustrator 26.0.3, SVG Export Plug-In . SVG Version: 6.00 Build 0)  -->
<svg version="1.1" id="Layer_1" xmlns="http://www.w3.org/2000/svg" xmlns:xlink="http://www.w3.org/1999/xlink" x="0px" y="0px"
	 viewBox="0 0 159.10001 80.6" style="enable-background:new 0 0 159.10001 80.6;" xml:space="preserve">
<style type="text/css">
	.st0{fill:#1F7FF0;}
</style>
<g id="Group-3">
	<g id="Group-2">
		<polygon id="Path-2" class="st0" points="0,35.5 0,0 45.8,0 45.8,16.5 16.3,16.5 16.3,35.5 		"/>
		<polygon id="Path-4" class="st0" points="56.6,35.5 56.6,0.1 102.4,0.1 102.4,16.5 73.1,16.5 73.1,35.5 		"/>
		<polygon id="Path-5" class="st0" points="56.6,45.1 73.1,45.1 73.1,64.1 102.3,64.1 102.3,80.5 56.6,80.5 		"/>
		<polygon id="Path-6" class="st0" points="113.4,80.6 113.4,45.1 129.8,45.1 129.8,64.1 159.10001,64.1 159.10001,80.5 		"/>
		<polygon id="Path-3" class="st0" points="0,64.1 29.3,64.1 29.3,45 45.7,45 45.7,80.5 0,80.5 		"/>
	</g>
</g>
</svg>
